<?xml version="1.0" encoding="UTF-8"?>
<svg version="1.1" xmlns="http://www.w3.org/2000/svg" width="1024" height="1024">
<path d="M0 0 C337.92 0 675.84 0 1024 0 C1024 337.92 1024 675.84 1024 1024 C686.08 1024 348.16 1024 0 1024 C0 686.08 0 348.16 0 0 Z " fill="#79BAE2" transform="translate(0,0)"/>
<path d="M0 0 C0.85432617 0.38696045 1.70865234 0.7739209 2.58886719 1.17260742 C9.97452964 4.5433974 17.24585348 8.12146091 24.47460938 11.81494141 C27.74457835 13.47859459 31.02955186 15.11214151 34.3125 16.75 C32.95676385 21.06879673 31.30590257 25.08893734 29.36328125 29.17578125 C29.07363998 29.78874054 28.78399872 30.40169983 28.48558044 31.03323364 C27.53499235 33.04439496 26.58008775 35.05347214 25.625 37.0625 C21.36063107 46.05894199 17.14141941 55.06944656 13.08984375 64.1640625 C12.74983841 64.92452377 12.40983307 65.68498505 12.05952454 66.4684906 C10.06616439 70.92758862 10.06616439 70.92758862 8.09414673 75.39614868 C7.19158235 77.45444106 6.2766803 79.50683838 5.359375 81.55859375 C4.84213867 82.73220459 4.32490234 83.90581543 3.79199219 85.11499023 C2.3125 87.75 2.3125 87.75 -0.6875 88.75 C-2.94897461 87.85717773 -2.94897461 87.85717773 -5.58984375 86.43359375 C-6.55712402 85.91917725 -7.5244043 85.40476074 -8.52099609 84.87475586 C-10.05747803 84.03956421 -10.05747803 84.03956421 -11.625 83.1875 C-13.71979104 82.07242612 -15.81484048 80.95783754 -17.91015625 79.84375 C-19.41473389 79.03744141 -19.41473389 79.03744141 -20.94970703 78.21484375 C-28.7023246 74.06684077 -36.25679957 70.29971031 -44.6875 67.75 C-45.82445312 67.35941406 -46.96140625 66.96882813 -48.1328125 66.56640625 C-67.71531656 59.91339201 -94.98094318 54.30433279 -114.6875 62.75 C-122.93497812 66.88467736 -129.37099894 71.87026987 -132.8125 80.60546875 C-134.79458509 87.72858703 -134.79971058 95.25849053 -131.75 102.0625 C-119.6902561 122.46876966 -87.74098964 129.11417994 -66.89453125 136.91796875 C-60.21498234 139.42008786 -53.5378337 141.92779495 -46.87890625 144.484375 C-46.16660355 144.75408615 -45.45430084 145.0237973 -44.72041321 145.30168152 C-38.59197901 147.66900545 -32.88003945 150.65318115 -27.1484375 153.84765625 C-23.95543262 155.60272778 -20.72844782 157.18912629 -17.4375 158.75 C-7.2712555 163.8058669 1.0865012 171.02004132 9.3125 178.75 C9.98925781 179.33910156 10.66601562 179.92820312 11.36328125 180.53515625 C17.73406949 186.34419162 21.93699501 193.5426511 26.24511719 200.92724609 C27.10090309 202.38865908 27.98703838 203.83228173 28.8828125 205.26953125 C42.39087341 228.84492057 40.90117869 263.40041006 34.28125 288.7890625 C26.20755937 317.80729029 7.36634042 339.9458973 -18.6875 354.75 C-19.38230469 355.14832031 -20.07710937 355.54664063 -20.79296875 355.95703125 C-29.06418355 360.38363022 -38.40657788 363.60168566 -47.625 365.29296875 C-49.80616955 365.72370481 -49.80616955 365.72370481 -52.2578125 366.73046875 C-56.98980509 368.13713169 -61.65334321 368.49166335 -66.5625 368.875 C-67.62041748 368.9577417 -68.67833496 369.0404834 -69.76831055 369.12573242 C-102.80048608 371.50490977 -137.63355496 369.04923681 -168.73828125 356.8828125 C-171.71233647 355.74046016 -174.68425015 354.86260642 -177.75 354 C-197.76054824 347.86890319 -219.53774593 338.15190171 -235.6875 324.75 C-234.16871801 319.74244308 -232.07606624 315.21644181 -229.7578125 310.546875 C-229.37104843 309.75908661 -228.98428436 308.97129822 -228.58580017 308.15963745 C-227.33130891 305.60479959 -226.07207298 303.05233582 -224.8125 300.5 C-217.67957749 286.04912835 -217.67957749 286.04912835 -210.90234375 271.4296875 C-210.62563843 270.81420044 -210.34893311 270.19871338 -210.06384277 269.5645752 C-208.80291993 266.75289518 -207.56058594 263.93493917 -206.34228516 261.10449219 C-205.69525635 259.64897949 -205.69525635 259.64897949 -205.03515625 258.1640625 C-204.67429932 257.3282666 -204.31344238 256.4924707 -203.94165039 255.63134766 C-202.6875 253.75 -202.6875 253.75 -200.71044922 252.88134766 C-197.34770098 252.66300846 -195.44934597 254.60227798 -192.75 256.5 C-171.15877939 271.02961461 -146.13316687 282.1322767 -120.6875 287.75 C-119.48601318 288.02384521 -119.48601318 288.02384521 -118.26025391 288.30322266 C-110.44454259 289.91991888 -102.77535493 290.11698101 -94.8125 290.125 C-93.54019531 290.14949219 -92.26789063 290.17398437 -90.95703125 290.19921875 C-78.98093442 290.23591772 -66.83168084 288.07330448 -57.6875 279.75 C-50.81135256 271.30264442 -49.91793944 262.36248833 -50.6875 251.75 C-52.35257589 243.28838706 -60.32402 236.41689075 -66.98046875 231.515625 C-83.82959196 220.52600929 -104.32854246 213.97506229 -123.375 207.875 C-128.26621993 206.3012047 -132.70085855 204.39995911 -137.23828125 202 C-141.9184449 199.61139973 -146.82441681 197.73057899 -151.6875 195.75 C-153.9382577 194.81432055 -156.18828367 193.87687859 -158.4375 192.9375 C-159.44296875 192.51855469 -160.4484375 192.09960938 -161.484375 191.66796875 C-162.21140625 191.36503906 -162.9384375 191.06210937 -163.6875 190.75 C-163.6875 190.09 -163.6875 189.43 -163.6875 188.75 C-164.40421875 188.64945313 -165.1209375 188.54890625 -165.859375 188.4453125 C-181.01120172 184.72013963 -198.21623829 167.23575521 -206.6875 154.75 C-209.62895091 149.88749049 -212.18964031 144.85141946 -214.6875 139.75 C-215.11160156 138.90824219 -215.53570312 138.06648437 -215.97265625 137.19921875 C-221.75257142 124.47461463 -222.21004927 109.28138804 -222.13354492 95.51782227 C-222.12498541 93.18352143 -222.15405494 90.85164345 -222.18554688 88.51757812 C-222.3138301 61.01163636 -211.24816576 35.01547376 -192.375 15.0625 C-191.1684752 13.93363657 -189.93627311 12.83194291 -188.6875 11.75 C-187.83542969 11.00621094 -186.98335938 10.26242187 -186.10546875 9.49609375 C-165.91205757 -7.0682063 -142.27587829 -15.05311361 -116.6875 -18.25 C-115.43316162 -18.42128418 -114.17882324 -18.59256836 -112.88647461 -18.76904297 C-74.77242123 -23.50525248 -34.70645042 -15.83070545 0 0 Z " fill="#050606" transform="translate(511.6875,342.25)"/>
<path d="M0 0 C0.89455902 -0.00100708 1.78911804 -0.00201416 2.71078491 -0.00305176 C15.94922196 0.00703524 28.68815076 0.57665557 41.6875 3.25 C43.32265334 3.55609755 44.95807691 3.86075462 46.59375 4.1640625 C66.04123007 7.89537695 83.6636126 14.70588251 101.5 23.25 C102.57958984 23.75789063 103.65917969 24.26578125 104.77148438 24.7890625 C110.49806982 27.52771158 115.66923032 30.35565092 120.6875 34.25 C120.05864887 38.42944133 118.64147703 41.72368726 116.765625 45.5 C116.46896439 46.10311508 116.17230377 46.70623016 115.86665344 47.32762146 C115.22732164 48.62738809 114.58566814 49.92601481 113.94192505 51.22360229 C108.13537916 62.93813617 102.56404212 74.7416479 97.25 86.6875 C96.9655603 87.3266333 96.68112061 87.9657666 96.38806152 88.62426758 C94.81467169 92.16330638 93.24793241 95.70523034 91.6875 99.25 C88.10244055 98.44806012 85.62229574 97.08909577 82.5 95.125 C73.05514617 89.49285404 62.76970902 85.75437269 52.49169922 81.92871094 C50.99668406 81.36631011 49.51069916 80.77997088 48.02734375 80.1875 C40.4163001 77.21733663 32.72118653 75.64393534 24.6875 74.25 C23.57632813 74.04246094 22.46515625 73.83492188 21.3203125 73.62109375 C11.11767089 71.90464934 0.9961784 71.96131154 -9.3125 72.25 C-10.98119141 72.29447266 -10.98119141 72.29447266 -12.68359375 72.33984375 C-23.0118126 72.94049194 -31.9930953 76.85826917 -39.3125 84.25 C-41.32957848 87.11818721 -42.90219659 90.04425007 -44.3125 93.25 C-44.67730469 94.04921875 -45.04210937 94.8484375 -45.41796875 95.671875 C-48.02442661 103.18393695 -46.66184198 111.44993589 -43.6953125 118.6484375 C-39.2113251 127.0844138 -32.5729279 131.87527395 -24.3125 136.25 C-22.99100952 136.95189453 -22.99100952 136.95189453 -21.64282227 137.66796875 C-14.27859129 141.46426576 -6.83171051 144.38430419 1 147.0625 C12.84476106 151.20019409 24.55679748 155.59700599 36.20458984 160.2590332 C37.8428159 160.91287387 39.48373888 161.56000255 41.12744141 162.19995117 C75.91788729 175.83123466 104.86022597 194.13074695 120.5 229.25 C125.02907795 241.01881059 126.18129618 252.34134795 126.07861328 264.80810547 C126.06256144 267.11616522 126.07854131 269.42246229 126.09765625 271.73046875 C126.11766626 285.09457492 124.30162553 297.89510306 119.875 310.5625 C119.61493164 311.31684326 119.35486328 312.07118652 119.08691406 312.84838867 C109.43986839 339.97706809 87.50714949 358.18207849 62.6875 371.25 C61.03608714 371.95360343 59.37091256 372.62682718 57.6875 373.25 C57.06230469 373.48460937 56.43710937 373.71921875 55.79296875 373.9609375 C38.09714671 380.08780053 20.29173859 382.23425134 1.6875 383.25 C1.6875 383.91 1.6875 384.57 1.6875 385.25 C-2.6874437 385.30826088 -7.06228698 385.34368457 -11.4375 385.375 C-12.675 385.39175781 -13.9125 385.40851563 -15.1875 385.42578125 C-16.38632812 385.43222656 -17.58515625 385.43867187 -18.8203125 385.4453125 C-19.92004395 385.45578613 -21.01977539 385.46625977 -22.15283203 385.47705078 C-25.53058605 385.23432854 -28.1931073 384.55657893 -31.3125 383.25 C-31.6425 382.59 -31.9725 381.93 -32.3125 381.25 C-34.67684109 380.69619038 -36.98194703 380.25853419 -39.375 379.875 C-52.80879879 377.52567259 -65.56542975 374.10982053 -78.3125 369.25 C-76.96465042 366.199756 -75.49668221 364.28657551 -73.0390625 362.05078125 C-69.13322057 358.253154 -66.43082202 354.11818794 -63.6875 349.4375 C-63.2116748 348.63562256 -62.73584961 347.83374512 -62.24560547 347.00756836 C-61.32212541 345.44006992 -60.40465296 343.86901168 -59.49414062 342.29394531 C-58.56941587 340.69440075 -57.62446242 339.10654706 -56.671875 337.5234375 C-52.16911717 329.45837126 -50.47286438 320.15459103 -48.3125 311.25 C-47.64919849 308.58248207 -46.98060542 305.91632026 -46.3125 303.25 C-39.49907647 303.71989128 -33.44927244 305.26249757 -26.9375 307.3125 C-12.32334655 311.09202244 5.38506617 310.88374785 19.6875 306.25 C20.57566406 305.98316406 21.46382812 305.71632813 22.37890625 305.44140625 C30.65562082 302.59826002 37.15837035 297.35574493 41.75 289.875 C45.30449583 281.91441039 44.95754424 271.75601534 43.0234375 263.37109375 C37.04974722 248.43686806 22.03050582 241.48989634 8.203125 235.51953125 C0.77460575 232.40567703 -6.80143547 229.7112035 -14.390625 227.01953125 C-19.09587174 225.34578753 -23.70459049 223.51711566 -28.265625 221.48046875 C-30.72297103 220.48807901 -33.07113843 219.71750143 -35.609375 218.98828125 C-48.21328642 215.1370861 -53.22517769 209.33622251 -59.99951172 198.28710938 C-72.92174373 178.23818712 -97.86903691 163.85198399 -119.39453125 154.515625 C-124.28701553 151.28718324 -125.19512081 145.63695618 -126.4375 140.25 C-126.69080078 139.20199219 -126.69080078 139.20199219 -126.94921875 138.1328125 C-127.41827747 136.17532335 -127.86605046 134.21276913 -128.3125 132.25 C-128.58380737 131.07884644 -128.58380737 131.07884644 -128.8605957 129.8840332 C-129.36048477 126.97030918 -129.42531414 124.2487566 -129.41015625 121.29296875 C-129.40693359 120.18115234 -129.40371094 119.06933594 -129.40039062 117.92382812 C-129.39201172 116.77333984 -129.38363281 115.62285156 -129.375 114.4375 C-129.37048828 113.26767578 -129.36597656 112.09785156 -129.36132812 110.89257812 C-129.3495693 108.01166642 -129.33313426 105.13085956 -129.3125 102.25 C-125.29792272 103.52007567 -121.54032589 104.9933042 -117.75 106.82421875 C-116.19236938 107.57396973 -116.19236938 107.57396973 -114.60327148 108.33886719 C-113.51731689 108.86641602 -112.4313623 109.39396484 -111.3125 109.9375 C-110.20140869 110.47407227 -109.09031738 111.01064453 -107.94555664 111.56347656 C-100.03402637 115.3920272 -92.14846396 119.26893781 -84.3125 123.25 C-83.91417969 121.71279297 -83.91417969 121.71279297 -83.5078125 120.14453125 C-82.46347223 116.49848512 -80.95382826 113.30173918 -79.1875 109.9375 C-76.38123662 104.49698199 -73.82202623 98.98579745 -71.375 93.375 C-68.82254171 87.5375421 -66.14232627 81.80169854 -63.25 76.125 C-60.46811224 70.63410636 -57.78345676 65.11039224 -55.25 59.5 C-54.78291626 58.49815674 -54.78291626 58.49815674 -54.30639648 57.47607422 C-53.1840321 54.94481205 -52.3125 52.79208977 -52.3125 50 C-53.80228658 47.39287349 -55.77667832 46.44716651 -58.375 45 C-59.29410156 44.47921875 -60.21320313 43.9584375 -61.16015625 43.421875 C-61.87042969 43.03515625 -62.58070313 42.6484375 -63.3125 42.25 C-62.80537967 38.53111761 -62.19641785 35.51545761 -60.3125 32.25 C-61.12976563 32.00507813 -61.94703125 31.76015625 -62.7890625 31.5078125 C-66.94411324 30.02452388 -70.76571289 28.13199051 -74.6875 26.125 C-75.42355469 25.75246094 -76.15960937 25.37992187 -76.91796875 24.99609375 C-78.71800358 24.0843878 -80.51551402 23.16770068 -82.3125 22.25 C-80.86046829 17.89390486 -77.5587087 16.87454449 -73.6875 14.875 C-72.92493896 14.47724365 -72.16237793 14.0794873 -71.37670898 13.66967773 C-61.15904661 8.48094665 -50.61075737 5.18684412 -39.3125 3.25 C-36.91536551 2.744148 -34.51966317 2.23226204 -32.125 1.71484375 C-21.46782849 -0.04654988 -10.77267747 0.00839734 0 0 Z " fill="#FEFEFE" transform="translate(606.3125,326.75)"/>
<path d="M0 0 C1.41764994 0.93601246 2.83407568 1.8738792 4.25 2.8125 C5.03890625 3.33457031 5.8278125 3.85664063 6.640625 4.39453125 C8.81092481 5.87134122 10.91413768 7.40689873 13 9 C12.45543818 13.94643652 10.80845417 17.78820387 8.5 22.125 C5.3794202 28.17549281 2.45534957 34.28023865 -0.3125 40.5 C-1.06245263 42.18231278 -1.81245403 43.86460383 -2.5625 45.546875 C-2.95179688 46.42021484 -3.34109375 47.29355469 -3.7421875 48.19335938 C-6.07169378 53.39134156 -8.44160846 58.57079477 -10.8125 63.75 C-11.26858643 64.74966797 -11.72467285 65.74933594 -12.19458008 66.77929688 C-14.69637239 72.24110549 -17.27783514 77.64450549 -20 83 C-24.12992303 82.38761577 -27.26021577 81.00448341 -30.9375 79.05078125 C-32.65259766 78.14875977 -32.65259766 78.14875977 -34.40234375 77.22851562 C-35.60181092 76.59031041 -36.80102907 75.95163698 -38 75.3125 C-46.89475558 70.59738709 -55.81556288 66.12212642 -65 62 C-64.82952575 73.99932962 -64.64966502 85.91559802 -62.125 97.6875 C-61.96354492 98.44522705 -61.80208984 99.2029541 -61.63574219 99.98364258 C-60.62464252 104.31222896 -59.4903825 108.26711565 -57 112 C-54.61005814 113.47414214 -52.48507198 114.5859386 -49.9375 115.6875 C-36.19641706 122.10781251 -23.33623986 129.87295905 -12 140 C-10.94447813 140.90028823 -9.88846368 141.79999918 -8.83203125 142.69921875 C-0.06603965 150.3135213 7.96154855 159.15399426 13.31518555 169.55517578 C15.36082348 172.5235888 16.85774068 173.19061751 20.19921875 174.46484375 C21.75370728 175.07138794 21.75370728 175.07138794 23.33959961 175.69018555 C24.44440674 176.10179932 25.54921387 176.51341309 26.6875 176.9375 C27.82002197 177.37425049 28.95254395 177.81100098 30.11938477 178.26098633 C33.40678683 179.52429099 36.70169653 180.76548616 40 182 C41.52622035 182.57765312 43.05228938 183.1557064 44.578125 183.734375 C49.09778557 185.43989678 53.62640942 187.12138995 58.15673828 188.79833984 C96.8314104 203.18716152 96.8314104 203.18716152 107 220 C110.43205258 228.06590135 110.45748932 238.74913444 108.125 247.15234375 C103.68096288 256.63977826 96.54870538 262.12928783 87 266 C63.88674349 274.16963411 40.93369769 268.9545951 18 263 C17.85304688 264.16402344 17.85304688 264.16402344 17.703125 265.3515625 C14.57567689 287.94467901 5.30299967 309.86349233 -11.65234375 325.66015625 C-13.12264379 326.9794674 -13.12264379 326.9794674 -14 329 C-13.31421875 329.11859375 -12.6284375 329.2371875 -11.921875 329.359375 C-8.59424089 330.08896323 -5.47680541 331.15593293 -2.25 332.25 C6.25554296 335.04573678 14.94657358 336.70122838 23.74511719 338.29980469 C24.78571289 338.49348633 25.82630859 338.68716797 26.8984375 338.88671875 C28.30101807 339.13748169 28.30101807 339.13748169 29.73193359 339.39331055 C32 340 32 340 34 342 C34 342.33 34 342.66 34 343 C43.3757304 344.93297977 52.58460571 345.40270763 62.125 345.375 C62.86511322 345.37412384 63.60522644 345.37324768 64.36776733 345.37234497 C97.75928123 345.24292571 133.98841673 337.77700786 159 314 C159.91845703 313.18015625 159.91845703 313.18015625 160.85546875 312.34375 C164.75722132 308.7009238 168.03271431 304.571343 171.3125 300.375 C171.96230835 299.54887207 171.96230835 299.54887207 172.62524414 298.70605469 C174.99659319 295.60286552 176.75319763 292.70596506 178 289 C178.66 289 179.32 289 180 289 C180.28101563 288.12214844 180.56203125 287.24429687 180.8515625 286.33984375 C181.88899487 283.32282105 183.07802629 280.47449511 184.375 277.5625 C191.49597386 260.5477837 193.41310476 242.88961776 193.375 224.625 C193.3764502 223.90853302 193.37790039 223.19206604 193.37939453 222.45388794 C193.3769641 211.56296989 192.54554108 201.36754198 189 191 C191.21841726 193.04873662 192.6340381 194.90619106 193.9375 197.625 C194.27378418 198.32568604 194.61006836 199.02637207 194.95654297 199.74829102 C207.69090553 227.2281754 209.09208527 260.3627788 198.75488281 288.98242188 C188.58586614 316.16119089 170.56869612 337.47518564 143.93359375 349.94921875 C134.38637276 354.2709096 124.93442606 357.5983624 114.75 360.0625 C113.74948608 360.30649536 113.74948608 360.30649536 112.72875977 360.55541992 C110.49249551 361.07699372 108.25130096 361.54757899 106 362 C104.65010986 362.27577881 104.65010986 362.27577881 103.27294922 362.55712891 C93.95836114 364.2337249 84.75735661 364.30526121 75.32617188 364.26074219 C72.636488 364.25004569 69.94747589 364.26068098 67.2578125 364.2734375 C56.98673946 364.2818194 47.14932502 363.70164507 37 362 C35.81229004 361.81147461 35.81229004 361.81147461 34.60058594 361.61914062 C20.24247549 359.25295763 6.36500137 355.56471444 -7.4375 351 C-8.44425781 350.66782471 -9.45101562 350.33564941 -10.48828125 349.9934082 C-15.11767088 348.43198692 -19.52543289 346.78519435 -23.91015625 344.625 C-27.07416895 343.15524401 -27.07416895 343.15524401 -30.4921875 343.4765625 C-31.73355469 344.23066406 -31.73355469 344.23066406 -33 345 C-34.4141619 345.68512624 -35.8341306 346.3583197 -37.2578125 347.0234375 C-38.4344043 347.59251831 -38.4344043 347.59251831 -39.63476562 348.1730957 C-53.59268409 354.909844 -66.78772732 359.14604728 -82 362 C-82.88768066 362.18240234 -83.77536133 362.36480469 -84.68994141 362.55273438 C-93.30142793 364.19580191 -101.77321904 364.31420211 -110.5 364.25 C-111.62367477 364.24534729 -111.62367477 364.24534729 -112.77005005 364.24060059 C-131.31941023 364.15064992 -148.95488864 362.40376068 -167 358 C-167.85287598 357.79391113 -168.70575195 357.58782227 -169.58447266 357.37548828 C-195.85968002 350.91183561 -220.60416671 340.84734164 -243.9375 327.1875 C-244.87996582 326.63610352 -245.82243164 326.08470703 -246.79345703 325.51660156 C-247.67501465 324.98905273 -248.55657227 324.46150391 -249.46484375 323.91796875 C-250.244646 323.45156982 -251.02444824 322.9851709 -251.82788086 322.50463867 C-254.16905795 320.88289264 -256.04789653 319.06704741 -258 317 C-256.35 314.03 -254.7 311.06 -253 308 C-252.01882202 308.55071167 -252.01882202 308.55071167 -251.01782227 309.11254883 C-244.11633936 312.93790041 -237.1117002 316.40563618 -229.9375 319.6875 C-228.92623047 320.15994141 -227.91496094 320.63238281 -226.87304688 321.11914062 C-220.6807708 323.96208515 -214.55958742 326.18258104 -208 328 C-204.16116239 329.21168597 -200.34931307 330.48545576 -196.58764648 331.91992188 C-169.35853837 342.28314343 -138.9361706 345.14064733 -110 344 C-108.50557373 343.94416748 -108.50557373 343.94416748 -106.98095703 343.88720703 C-72.87325539 342.39139939 -41.4027071 330.21917302 -17.8828125 304.703125 C-6.22191552 290.81894416 1.42100159 273.70537622 5 256 C5.20496094 255.06800781 5.40992188 254.13601563 5.62109375 253.17578125 C8.63689318 237.26483944 7.86165031 219.87967804 5 204 C4.8870459 203.35546875 4.7740918 202.7109375 4.65771484 202.046875 C0.10401944 177.27282128 -16.06235195 155.88629678 -36.43383789 141.58666992 C-43.59571047 136.76169598 -51.23966919 132.76715088 -59 129 C-60.34989014 128.34306152 -60.34989014 128.34306152 -61.72705078 127.67285156 C-70.67451199 123.42925553 -79.84021778 119.8386894 -89.07672119 116.28051758 C-91.80153285 115.23013469 -94.52388665 114.17360365 -97.24560547 113.11523438 C-103.8604503 110.54319843 -110.47683853 107.97516688 -117.09667969 105.41601562 C-157.15460798 89.89505665 -157.15460798 89.89505665 -164.12109375 74.8125 C-166.30308059 67.8301421 -166.15084045 59.5547996 -163.09375 52.83203125 C-157.73367051 43.8538981 -149.73259333 38.22502917 -139.8125 35.125 C-114.30080344 29.61604753 -86.21073041 36.21822573 -63 47 C-62.17516113 47.38244873 -61.35032227 47.76489746 -60.50048828 48.15893555 C-57.87044111 49.38756529 -55.24661405 50.62848226 -52.625 51.875 C-51.70614014 52.31118652 -50.78728027 52.74737305 -49.84057617 53.19677734 C-44.06313956 55.95894325 -38.41052618 58.83634693 -32.86328125 62.0390625 C-31.05315705 63.15278604 -31.05315705 63.15278604 -29 63 C-19.23045598 42.04676539 -9.5919186 21.03507192 0 0 Z " fill="#78B9E1" transform="translate(542,367)"/>
<path d="M0 0 C2.21841726 2.04873662 3.6340381 3.90619106 4.9375 6.625 C5.27378418 7.32568604 5.61006836 8.02637207 5.95654297 8.74829102 C18.69090553 36.2281754 20.09208527 69.3627788 9.75488281 97.98242188 C-0.41413386 125.16119089 -18.43130388 146.47518564 -45.06640625 158.94921875 C-54.61362724 163.2709096 -64.06557394 166.5983624 -74.25 169.0625 C-75.25051392 169.30649536 -75.25051392 169.30649536 -76.27124023 169.55541992 C-78.50750449 170.07699372 -80.74869904 170.54757899 -83 171 C-83.89992676 171.18385254 -84.79985352 171.36770508 -85.72705078 171.55712891 C-95.04163886 173.2337249 -104.24264339 173.30526121 -113.67382812 173.26074219 C-116.363512 173.25004569 -119.05252411 173.26068098 -121.7421875 173.2734375 C-132.01326054 173.2818194 -141.85067498 172.70164507 -152 171 C-152.79180664 170.87431641 -153.58361328 170.74863281 -154.39941406 170.61914062 C-168.75752451 168.25295763 -182.63499863 164.56471444 -196.4375 160 C-197.44425781 159.66782471 -198.45101562 159.33564941 -199.48828125 158.9934082 C-204.11767088 157.43198692 -208.52543289 155.78519435 -212.91015625 153.625 C-216.07416895 152.15524401 -216.07416895 152.15524401 -219.4921875 152.4765625 C-220.31976563 152.97929688 -221.14734375 153.48203125 -222 154 C-223.4141619 154.68512624 -224.8341306 155.3583197 -226.2578125 156.0234375 C-227.4344043 156.59251831 -227.4344043 156.59251831 -228.63476562 157.1730957 C-242.59268409 163.909844 -255.78772732 168.14604728 -271 171 C-271.88768066 171.18240234 -272.77536133 171.36480469 -273.68994141 171.55273438 C-282.30142793 173.19580191 -290.77321904 173.31420211 -299.5 173.25 C-300.24911652 173.24689819 -300.99823303 173.24379639 -301.77005005 173.24060059 C-320.31941023 173.15064992 -337.95488864 171.40376068 -356 167 C-357.27931396 166.6908667 -357.27931396 166.6908667 -358.58447266 166.37548828 C-384.85968002 159.91183561 -409.60416671 149.84734164 -432.9375 136.1875 C-433.87996582 135.63610352 -434.82243164 135.08470703 -435.79345703 134.51660156 C-436.67501465 133.98905273 -437.55657227 133.46150391 -438.46484375 132.91796875 C-439.244646 132.45156982 -440.02444824 131.9851709 -440.82788086 131.50463867 C-443.16905795 129.88289264 -445.04789653 128.06704741 -447 126 C-445.35 123.03 -443.7 120.06 -442 117 C-441.34588135 117.36714111 -440.6917627 117.73428223 -440.01782227 118.11254883 C-433.11633936 121.93790041 -426.1117002 125.40563618 -418.9375 128.6875 C-417.92623047 129.15994141 -416.91496094 129.63238281 -415.87304688 130.11914062 C-409.6807708 132.96208515 -403.55958742 135.18258104 -397 137 C-393.16116239 138.21168597 -389.34931307 139.48545576 -385.58764648 140.91992188 C-358.35853837 151.28314343 -327.9361706 154.14064733 -299 153 C-298.00371582 152.96277832 -297.00743164 152.92555664 -295.98095703 152.88720703 C-275.01316705 151.96765576 -255.73575952 147.5144933 -237.25 137.4375 C-235.64898437 136.56931641 -235.64898437 136.56931641 -234.015625 135.68359375 C-231.30972531 134.17291659 -228.64631187 132.61229001 -226 131 C-225.58065186 131.46100098 -225.16130371 131.92200195 -224.72924805 132.39697266 C-222.94001918 134.05560272 -221.59107857 134.77638405 -219.33203125 135.6484375 C-218.25332764 136.06911499 -218.25332764 136.06911499 -217.15283203 136.49829102 C-215.99436768 136.93226196 -215.99436768 136.93226196 -214.8125 137.375 C-214.00151855 137.68171631 -213.19053711 137.98843262 -212.35498047 138.30444336 C-164.91739274 156.02751164 -106.75320145 163.21443846 -59.23583984 141.75146484 C-48.51792521 136.67944529 -38.63697046 131.21064834 -30 123 C-29.38769531 122.4534375 -28.77539062 121.906875 -28.14453125 121.34375 C-24.24277868 117.7009238 -20.96728569 113.571343 -17.6875 109.375 C-17.25429443 108.82424805 -16.82108887 108.27349609 -16.37475586 107.70605469 C-14.00340681 104.60286552 -12.24680237 101.70596506 -11 98 C-10.34 98 -9.68 98 -9 98 C-8.57847656 96.68322266 -8.57847656 96.68322266 -8.1484375 95.33984375 C-7.11100513 92.32282105 -5.92197371 89.47449511 -4.625 86.5625 C2.49597386 69.5477837 4.41310476 51.88961776 4.375 33.625 C4.3764502 32.90853302 4.37790039 32.19206604 4.37939453 31.45388794 C4.3769641 20.56296989 3.54554108 10.36754198 0 0 Z " fill="#5F8EAC" transform="translate(731,558)"/>
<path d="M0 0 C-0.99 0.33 -1.98 0.66 -3 1 C-4.10694249 7.88347083 -4.18609455 14.64670069 -4.18530273 21.59570312 C-4.18748029 23.73067441 -4.20565346 25.86512038 -4.22460938 28 C-4.30401766 46.82099632 0.598238 63.22167709 9.328125 79.76953125 C11 83 11 83 12 86 C8.04129184 84.47674387 4.25065309 82.70285733 0.4296875 80.86328125 C-7.96252807 76.8941386 -16.5651184 73.53259112 -25.2276001 70.20507812 C-27.93501239 69.1644331 -30.63948666 68.11646264 -33.34326172 67.06640625 C-39.26833328 64.76570197 -45.1953306 62.4699859 -51.12426758 60.17926025 C-93.13132629 43.94546189 -93.13132629 43.94546189 -100.12109375 28.8125 C-102.30308059 21.8301421 -102.15084045 13.5547996 -99.09375 6.83203125 C-93.73367051 -2.1461019 -85.73259333 -7.77497083 -75.8125 -10.875 C-50.10903603 -16.4253624 -23.87934238 -9.08659008 0 0 Z " fill="#77B8E0" transform="translate(478,413)"/>
<path d="M0 0 C1.41764994 0.93601246 2.83407568 1.8738792 4.25 2.8125 C5.43335938 3.59560547 5.43335938 3.59560547 6.640625 4.39453125 C8.81092481 5.87134122 10.91413768 7.40689873 13 9 C12.45543818 13.94643652 10.80845417 17.78820387 8.5 22.125 C5.3794202 28.17549281 2.45534957 34.28023865 -0.3125 40.5 C-1.06245263 42.18231278 -1.81245403 43.86460383 -2.5625 45.546875 C-2.95179688 46.42021484 -3.34109375 47.29355469 -3.7421875 48.19335938 C-6.07169378 53.39134156 -8.44160846 58.57079477 -10.8125 63.75 C-11.26858643 64.74966797 -11.72467285 65.74933594 -12.19458008 66.77929688 C-14.69637239 72.24110549 -17.27783514 77.64450549 -20 83 C-24.12992303 82.38761577 -27.26021577 81.00448341 -30.9375 79.05078125 C-32.08089844 78.44943359 -33.22429687 77.84808594 -34.40234375 77.22851562 C-35.60181092 76.59031041 -36.80102907 75.95163698 -38 75.3125 C-46.89475558 70.59738709 -55.81556288 66.12212642 -65 62 C-64.82952575 73.99932962 -64.64966502 85.91559802 -62.125 97.6875 C-61.96354492 98.44522705 -61.80208984 99.2029541 -61.63574219 99.98364258 C-60.62464252 104.31222896 -59.4903825 108.26711565 -57 112 C-54.61005814 113.47414214 -52.48507198 114.5859386 -49.9375 115.6875 C-36.19641706 122.10781251 -23.33623986 129.87295905 -12 140 C-10.94447813 140.90028823 -9.88846368 141.79999918 -8.83203125 142.69921875 C-0.06603965 150.3135213 7.96154855 159.15399426 13.31518555 169.55517578 C15.36082348 172.5235888 16.85774068 173.19061751 20.19921875 174.46484375 C21.23554443 174.86920654 22.27187012 175.27356934 23.33959961 175.69018555 C24.9968103 176.3076062 24.9968103 176.3076062 26.6875 176.9375 C27.82002197 177.37425049 28.95254395 177.81100098 30.11938477 178.26098633 C33.40678683 179.52429099 36.70169653 180.76548616 40 182 C41.52622035 182.57765312 43.05228938 183.1557064 44.578125 183.734375 C49.09778557 185.43989678 53.62640942 187.12138995 58.15673828 188.79833984 C96.8314104 203.18716152 96.8314104 203.18716152 107 220 C110.43205258 228.06590135 110.45748932 238.74913444 108.125 247.15234375 C103.68096288 256.63977826 96.54870538 262.12928783 87 266 C63.88674349 274.16963411 40.93369769 268.9545951 18 263 C17.90203125 263.77601563 17.8040625 264.55203125 17.703125 265.3515625 C14.57567689 287.94467901 5.30299967 309.86349233 -11.65234375 325.66015625 C-13.12264379 326.9794674 -13.12264379 326.9794674 -14 329 C-13.31421875 329.11859375 -12.6284375 329.2371875 -11.921875 329.359375 C-8.59424089 330.08896323 -5.47680541 331.15593293 -2.25 332.25 C6.25554296 335.04573678 14.94657358 336.70122838 23.74511719 338.29980469 C24.78571289 338.49348633 25.82630859 338.68716797 26.8984375 338.88671875 C27.83349121 339.05389404 28.76854492 339.22106934 29.73193359 339.39331055 C32 340 32 340 34 342 C34 342.66 34 343.32 34 344 C17.43141568 342.36022258 1.35297927 338.75839774 -14.4375 333.5 C-15.54335449 333.13261719 -16.64920898 332.76523437 -17.78857422 332.38671875 C-24.4803457 330.08040567 -30.76134697 327.34310144 -37 324 C-35.26459585 320.21021258 -33.33786186 318.47408536 -30 315.9375 C-9.93727352 299.86109303 -0.48950893 278.16370147 6 254 C9.75444981 254.60863151 13.19736383 255.73341054 16.77075195 257.01904297 C38.55221915 264.77172815 65.52020198 270.27535945 87.67578125 260.86328125 C95.61815882 256.74260418 101.56211726 250.32174192 105 242 C106.0674287 232.72826468 104.95818053 225.43122493 99.45703125 217.8828125 C86.89976596 202.65317726 66.50040433 196.81947061 48.5625 190.25 C45.08377889 188.96585459 41.60639158 187.67811253 38.12890625 186.390625 C36.89843819 185.93594345 36.89843819 185.93594345 35.64311218 185.47207642 C13.67590683 177.34058738 -7.33908863 169.30963616 -23.75 152.0625 C-30.51656925 145.20004819 -38.79037974 139.56880587 -47.375 135.25 C-58.47175015 128.71928967 -62.40896415 112.56030506 -66 101 C-66.36351562 99.84371094 -66.72703125 98.68742187 -67.1015625 97.49609375 C-69.25918018 89.1001467 -69.18627821 80.717734 -69.18530273 72.10913086 C-69.18749839 69.93909339 -69.20573173 67.76955793 -69.22460938 65.59960938 C-69.22754268 64.20052255 -69.2295279 62.80143334 -69.23046875 61.40234375 C-69.23457764 60.14929443 -69.23868652 58.89624512 -69.24291992 57.60522461 C-68.98200653 53.73295518 -68.19251252 50.67501816 -67 47 C-61.33031084 47.55692599 -56.85752108 49.72130108 -51.8125 52.1875 C-50.97404541 52.59025146 -50.13559082 52.99300293 -49.27172852 53.40795898 C-43.71917229 56.09661593 -38.28108775 58.92555167 -32.93359375 62.00390625 C-31.06618904 63.1526522 -31.06618904 63.1526522 -29 63 C-19.23045598 42.04676539 -9.5919186 21.03507192 0 0 Z " fill="#C9CBCB" transform="translate(542,367)"/>
<path d="M0 0 C3.62276315 1.3255581 6.63505348 2.94346955 9.8125 5.125 C10.60269531 5.66382813 11.39289063 6.20265625 12.20703125 6.7578125 C12.79871094 7.16773438 13.39039063 7.57765625 14 8 C12.39848191 12.12120067 10.60359941 16.14236079 8.76171875 20.16015625 C8.44432236 20.85478973 8.12692596 21.54942322 7.7999115 22.2651062 C6.76375988 24.53151017 5.72573777 26.79705102 4.6875 29.0625 C3.96988674 30.63028853 3.25227609 32.19807826 2.53466797 33.76586914 C-2.07697557 43.83462419 -6.71219514 53.89233728 -11.375 63.9375 C-11.91552002 65.10224854 -12.45604004 66.26699707 -13.01293945 67.46704102 C-17.05306731 76.15393626 -17.05306731 76.15393626 -19 80 C-24.32843467 79.48641594 -28.35777602 76.6394309 -32.875 74 C-50.88089917 63.839635 -69.89967182 57.57315635 -90 53 C-91.1240625 52.73316406 -92.248125 52.46632813 -93.40625 52.19140625 C-109.3886026 48.93657321 -129.91732884 49.10789515 -144.25 57.75 C-150.94839221 62.98433357 -153.08322843 68.14768907 -154.3125 76.5 C-154.56033878 78.6646103 -154.79587871 80.8308305 -155 83 C-161.67997088 76.55227977 -165.05371538 70.74168236 -165.375 61.375 C-165.28481988 53.1485691 -162.23848433 47.15081847 -156.75 41.125 C-147.27909206 32.431402 -134.25354422 31.62283248 -122 31.6875 C-120.9071167 31.69168945 -119.8142334 31.69587891 -118.68823242 31.70019531 C-109.22234373 31.83055844 -100.21515429 32.86735664 -91 35 C-89.84113281 35.26683594 -88.68226563 35.53367187 -87.48828125 35.80859375 C-69.82169841 40.42529658 -53.39230577 48.52147319 -37.23535156 56.85009766 C-34.50140323 58.25648654 -31.75348735 59.63234374 -29 61 C-24.01243654 50.53513817 -19.08691988 40.04347661 -14.22259521 29.52075195 C-9.63588572 19.6002215 -5.01955292 9.71055329 0 0 Z " fill="#618FAB" transform="translate(728,370)"/>
<path d="M0 0 C0.75757095 -0.00418945 1.51514191 -0.00837891 2.29566956 -0.01269531 C4.73492702 -0.02242546 7.17400768 -0.02249284 9.61328125 -0.01953125 C10.44525024 -0.01925934 11.27721924 -0.01898743 12.13439941 -0.01870728 C24.50555546 -0.00005894 36.67103983 0.34365706 48.92578125 2.16796875 C49.60769531 2.25916992 50.28960938 2.35037109 50.9921875 2.44433594 C83.03746238 6.77683278 112.93619587 20.56131906 140.92578125 36.16796875 C139.17791913 42.19860415 136.36076024 47.67218878 133.61328125 53.29296875 C129.01713274 62.77168936 124.52572418 72.29033752 120.11328125 81.85546875 C115.87069863 91.0414625 111.57253328 100.17861574 106.92578125 109.16796875 C106.01441406 108.70648438 105.10304688 108.245 104.1640625 107.76953125 C99.76152745 105.5483179 95.34528505 103.35518985 90.92578125 101.16796875 C90.08595703 100.75095703 89.24613281 100.33394531 88.38085938 99.90429688 C70.57694306 91.10281228 53.52228623 84.62893788 33.92578125 81.16796875 C32.8378125 80.97332031 31.74984375 80.77867187 30.62890625 80.578125 C15.42797672 78.89447774 -4.23637326 77.47289408 -17.36328125 86.72265625 C-23.15345954 91.61390275 -27.50210199 97.18137082 -28.390625 104.92578125 C-28.75924048 114.22440412 -26.63788849 121.64183072 -20.49975586 128.74902344 C-18.17602172 131.06201244 -15.55905067 132.52889474 -12.69921875 134.10546875 C-11.07886719 135.01619141 -11.07886719 135.01619141 -9.42578125 135.9453125 C2.00711228 141.90396342 13.68097031 146.72078694 25.81204224 151.04989624 C58.10670964 162.60445159 90.56166888 174.33444937 115.92578125 198.16796875 C116.5290625 198.69519531 117.13234375 199.22242188 117.75390625 199.765625 C127.30241595 208.48867943 134.42759531 221.20840021 138.92578125 233.16796875 C139.16699707 233.78929687 139.40821289 234.410625 139.65673828 235.05078125 C143.79167545 246.15712994 144.38073117 257.18832774 144.36328125 268.91796875 C144.36361359 269.95709412 144.36361359 269.95709412 144.36395264 271.01721191 C144.26794813 299.21916157 137.68635197 326.41807632 118.92578125 348.16796875 C117.83910156 349.43833984 117.83910156 349.43833984 116.73046875 350.734375 C95.76298209 374.66068817 64.64782993 386.96627758 33.30712891 389.95410156 C20.88364415 390.73987576 8.36445808 390.38038157 -4.07421875 390.16796875 C-4.07421875 389.83796875 -4.07421875 389.50796875 -4.07421875 389.16796875 C2.52578125 389.16796875 9.12578125 389.16796875 15.92578125 389.16796875 C15.92578125 388.50796875 15.92578125 387.84796875 15.92578125 387.16796875 C18.29510585 385.98330645 20.01744319 385.92014643 22.66015625 385.73828125 C23.62042725 385.66673828 24.58069824 385.59519531 25.57006836 385.52148438 C26.59495361 385.44607422 27.61983887 385.37066406 28.67578125 385.29296875 C37.67029251 384.57457732 46.17298888 383.41102418 54.92578125 381.16796875 C55.68632813 380.99265625 56.446875 380.81734375 57.23046875 380.63671875 C59.13967844 380.19098886 61.03357526 379.68110936 62.92578125 379.16796875 C63.55871094 379.00039063 64.19164062 378.8328125 64.84375 378.66015625 C89.91389062 371.22848229 112.7791957 353.04995614 126.04296875 330.68359375 C134.22147737 315.41251956 138.97916631 298.45117547 139.1640625 281.109375 C139.17617012 279.98824562 139.17617012 279.98824562 139.18852234 278.84446716 C139.2022629 277.2688115 139.2130292 275.69312732 139.22094727 274.11743164 C139.23238691 272.54214437 139.25270939 270.96689336 139.2824707 269.3918457 C139.55795473 254.74502192 137.90217606 240.55269699 131.17578125 227.29296875 C130.83216553 226.59228271 130.4885498 225.89159668 130.13452148 225.16967773 C127.0244312 219.01111818 123.33059935 213.48384031 118.92578125 208.16796875 C118.21550781 207.306875 117.50523437 206.44578125 116.7734375 205.55859375 C99.71962351 185.77736838 74.85560179 174.43112509 50.92578125 165.16796875 C50.24032227 164.89984375 49.55486328 164.63171875 48.84863281 164.35546875 C40.25063163 160.99873964 31.62468875 157.7428704 22.90625 154.7109375 C-11.85912733 142.61457425 -11.85912733 142.61457425 -23.07421875 132.16796875 C-23.64527344 131.63816406 -24.21632813 131.10835937 -24.8046875 130.5625 C-30.77360912 124.35776913 -33.24942982 116.54161239 -33.57421875 108.04296875 C-33.35281676 102.33079736 -31.99230174 98.05278478 -29.07421875 93.16796875 C-28.67332031 92.47960937 -28.27242187 91.79125 -27.859375 91.08203125 C-22.79904947 83.42553871 -14.79459739 78.66611436 -6.07421875 76.16796875 C17.74030226 71.86022263 45.87993967 75.446365 67.92578125 85.16796875 C69.46505761 85.77819967 71.00652364 86.38295565 72.55078125 86.98046875 C81.85866182 90.69514643 90.8408188 94.9790875 99.5859375 99.87109375 C101.67528995 101.02913217 103.78605121 102.10726233 105.92578125 103.16796875 C106.4671875 101.37746094 106.4671875 101.37746094 107.01953125 99.55078125 C109.04605946 93.48303382 111.77488808 87.75079358 114.50924683 81.97845459 C115.44121534 80.0103759 116.36590155 78.03900399 117.28930664 76.06689453 C120.2481719 69.76087129 123.24995163 63.4793512 126.328125 57.23046875 C126.84246094 56.18004395 127.35679687 55.12961914 127.88671875 54.04736328 C128.85129467 52.08471922 129.82613845 50.12707915 130.8125 48.17529297 C131.24046875 47.30404785 131.6684375 46.43280273 132.109375 45.53515625 C132.48634521 44.78347168 132.86331543 44.03178711 133.25170898 43.25732422 C134.07767663 40.69715358 134.07243332 39.60366555 132.92578125 37.16796875 C130.95949899 35.62208498 130.95949899 35.62208498 128.4296875 34.3984375 C127.48673828 33.90529053 126.54378906 33.41214355 125.57226562 32.90405273 C124.55455078 32.39302002 123.53683594 31.8819873 122.48828125 31.35546875 C121.45380859 30.82574463 120.41933594 30.29602051 119.35351562 29.75024414 C111.02324838 25.55627498 102.55641782 22.0207136 93.78662109 18.86889648 C91.9864416 18.19081785 90.22400668 17.41503914 88.46484375 16.63671875 C84.46370294 14.97620115 80.48862321 13.81103157 76.30078125 12.73046875 C75.48681885 12.51874023 74.67285645 12.30701172 73.83422852 12.08886719 C67.54915272 10.495047 61.22990877 9.14293578 54.86328125 7.91796875 C54.02007324 7.75498291 53.17686523 7.59199707 52.30810547 7.42407227 C40.85691136 5.30360602 29.6323835 4.98159285 18.01538086 4.98266602 C15.3935486 4.98049383 12.77214803 4.96232727 10.15039062 4.94335938 C1.89009355 4.9152383 -6.26450467 5.11016516 -14.4765625 6.0546875 C-15.15828018 6.13241898 -15.83999786 6.21015045 -16.54237366 6.29023743 C-20.59098799 6.81359079 -24.2375431 7.79582793 -28.07421875 9.16796875 C-30.0249841 9.5805327 -31.98374474 9.95740002 -33.94921875 10.29296875 C-34.91601562 10.46054687 -35.8828125 10.628125 -36.87890625 10.80078125 C-37.96558594 10.98253906 -37.96558594 10.98253906 -39.07421875 11.16796875 C-38.21484375 8.3125 -38.21484375 8.3125 -36.07421875 5.16796875 C-32.75705296 3.8212364 -29.35480573 3.36362281 -25.82421875 2.85546875 C-24.89480469 2.70013672 -23.96539063 2.54480469 -23.0078125 2.38476562 C-20.36655512 1.94953722 -17.72368392 1.54981482 -15.07421875 1.16796875 C-13.97907959 0.99072266 -12.88394043 0.81347656 -11.75561523 0.63085938 C-7.82155434 0.13619929 -3.95741702 0.00673828 0 0 Z " fill="#D7DADC" transform="translate(592.07421875,322.83203125)"/>
<path d="M0 0 C0.680625 0.680625 1.36125 1.36125 2.0625 2.0625 C2.52785156 2.52398437 2.99320312 2.98546875 3.47265625 3.4609375 C4.47550157 4.47147728 5.46322175 5.49730074 6.43359375 6.5390625 C15.32961124 15.90095622 27.61928954 25.87309651 40 30 C40 30.66 40 31.32 40 32 C41.155 32.2475 42.31 32.495 43.5 32.75 C47.28598348 33.56128217 50.42768325 35.17736549 53.84570312 36.93017578 C57.32231899 38.65666385 60.90415299 40.10516674 64.5 41.5625 C65.20769531 41.85318359 65.91539062 42.14386719 66.64453125 42.44335938 C73.31252538 45.16785058 80.05805228 47.66998928 86.83227539 50.116745 C89.78365041 51.18406989 92.73084345 52.26276257 95.67822266 53.34106445 C97.21055448 53.89969688 98.74406594 54.45510546 100.27880859 55.00708008 C119.48868506 61.9233813 139.06557426 69.89106356 151.9375 86.5 C153.42410346 89.9978905 153.67931558 93.21592386 154 97 C153.53353058 96.62307007 153.06706116 96.24614014 152.5864563 95.85778809 C147.48185132 91.86548917 142.29534912 88.8849452 136.4296875 86.15625 C135.52161346 85.7293689 134.61353943 85.30248779 133.677948 84.8626709 C124.33635393 80.55692734 114.75107167 77.00451122 105.06845093 73.55151367 C100.02386232 71.74939296 94.99414753 69.90677164 89.96484375 68.0625 C88.99458755 67.70692017 88.02433136 67.35134033 87.02467346 66.98498535 C76.48063648 63.10196275 66.12512097 58.8831612 56 54 C55.23107422 53.63003906 54.46214844 53.26007812 53.66992188 52.87890625 C43.38731983 47.85494684 34.07046726 41.96804107 25 35 C24.30519531 34.47921875 23.61039062 33.9584375 22.89453125 33.421875 C14.11997465 26.43435624 2.65191106 13.71191088 0.28125 2.64453125 C0.1884375 1.77183594 0.095625 0.89914062 0 0 Z " fill="#5D8EAC" transform="translate(308,501)"/>
<path d="M0 0 C-0.99 0.33 -1.98 0.66 -3 1 C-3.66 5.29 -4.32 9.58 -5 14 C-6.64142525 13.69587259 -8.28278012 13.39136156 -9.92382812 13.08520508 C-11.37387536 12.81555588 -12.82441608 12.54854951 -14.27539062 12.28393555 C-17.73164407 11.64653012 -21.14238948 10.96530136 -24.55859375 10.1328125 C-41.45664977 6.10489903 -61.82075566 5.19516561 -77.375 13.75 C-83.41213902 17.66152255 -87.70373752 22.11121257 -90 29 C-90.2759478 30.92903132 -90.48449903 32.8689032 -90.625 34.8125 C-90.69976562 35.78832031 -90.77453125 36.76414062 -90.8515625 37.76953125 C-90.90054687 38.50558594 -90.94953125 39.24164063 -91 40 C-96.41243527 36.59789783 -99.06184886 31.95802018 -101 26 C-102.08302865 17.54832782 -101.4485331 10.02911078 -96.59375 2.94921875 C-74.23439657 -25.05270736 -27.92475207 -10.62595322 0 0 Z " fill="#5C8BA8" transform="translate(478,413)"/>
<path d="M0 0 C1.41764994 0.93601246 2.83407568 1.8738792 4.25 2.8125 C5.43335938 3.59560547 5.43335938 3.59560547 6.640625 4.39453125 C8.81092481 5.87134122 10.91413768 7.40689873 13 9 C12.45543818 13.94643652 10.80845417 17.78820387 8.5 22.125 C5.3794202 28.17549281 2.45534957 34.28023865 -0.3125 40.5 C-1.06245263 42.18231278 -1.81245403 43.86460383 -2.5625 45.546875 C-2.95179688 46.42021484 -3.34109375 47.29355469 -3.7421875 48.19335938 C-6.07169378 53.39134156 -8.44160846 58.57079477 -10.8125 63.75 C-11.26858643 64.74966797 -11.72467285 65.74933594 -12.19458008 66.77929688 C-14.69637239 72.24110549 -17.27783514 77.64450549 -20 83 C-24.12992303 82.38761577 -27.26021577 81.00448341 -30.9375 79.05078125 C-32.08089844 78.44943359 -33.22429687 77.84808594 -34.40234375 77.22851562 C-35.60181092 76.59031041 -36.80102907 75.95163698 -38 75.3125 C-46.89475558 70.59738709 -55.81556288 66.12212642 -65 62 C-65.06058594 63.14339844 -65.12117188 64.28679687 -65.18359375 65.46484375 C-65.26798428 66.95574305 -65.35263302 68.44662775 -65.4375 69.9375 C-65.47681641 70.69224609 -65.51613281 71.44699219 -65.55664062 72.22460938 C-65.88671875 77.88671875 -65.88671875 77.88671875 -67 79 C-67.36760731 81.32817964 -67.70241581 83.6618385 -68 86 C-68.33 86 -68.66 86 -69 86 C-69.04973511 81.57089728 -69.08587704 77.14194603 -69.10986328 72.71264648 C-69.11987124 71.20838587 -69.1334818 69.70414447 -69.15087891 68.19995117 C-69.17535809 66.02778357 -69.18653523 63.85587496 -69.1953125 61.68359375 C-69.20578613 60.37962646 -69.21625977 59.07565918 -69.22705078 57.73217773 C-68.98704289 53.78701568 -68.22187181 50.73537628 -67 47 C-61.33031084 47.55692599 -56.85752108 49.72130108 -51.8125 52.1875 C-50.97404541 52.59025146 -50.13559082 52.99300293 -49.27172852 53.40795898 C-43.71917229 56.09661593 -38.28108775 58.92555167 -32.93359375 62.00390625 C-31.06618904 63.1526522 -31.06618904 63.1526522 -29 63 C-19.23045598 42.04676539 -9.5919186 21.03507192 0 0 Z " fill="#BEBFBF" transform="translate(542,367)"/>
<path d="M0 0 C4.72656515 0.77206841 9.11220354 2.32304977 13.625 3.875 C20.3600036 6.16006612 27.09815757 8.26693825 34 10 C33.34 10.99 32.68 11.98 32 13 C25.29225357 11.82144268 18.63818061 10.52351686 12 9 C11.90203125 9.77601563 11.8040625 10.55203125 11.703125 11.3515625 C8.57567689 33.94467901 -0.69700033 55.86349233 -17.65234375 71.66015625 C-19.12264379 72.9794674 -19.12264379 72.9794674 -20 75 C-18.97132813 75.17789063 -18.97132813 75.17789063 -17.921875 75.359375 C-14.59424089 76.08896323 -11.47680541 77.15593293 -8.25 78.25 C0.25554296 81.04573678 8.94657358 82.70122838 17.74511719 84.29980469 C19.30601074 84.59032715 19.30601074 84.59032715 20.8984375 84.88671875 C21.83349121 85.05389404 22.76854492 85.22106934 23.73193359 85.39331055 C26 86 26 86 28 88 C28 88.66 28 89.32 28 90 C11.43141568 88.36022258 -4.64702073 84.75839774 -20.4375 79.5 C-21.54335449 79.13261719 -22.64920898 78.76523437 -23.78857422 78.38671875 C-30.4803457 76.08040567 -36.76134697 73.34310144 -43 70 C-41.26459585 66.21021258 -39.33786186 64.47408536 -36 61.9375 C-15.93727352 45.86109303 -6.48950893 24.16370147 0 0 Z " fill="#BFC0C1" transform="translate(548,621)"/>
<path d="M0 0 C0.54785156 0.27473145 1.09570312 0.54946289 1.66015625 0.83251953 C6.42545073 3.21019463 11.21129678 5.54490754 16 7.875 C17.07378906 8.40480469 18.14757812 8.93460938 19.25390625 9.48046875 C25.42428034 12.4728403 31.52303614 14.94895819 38.05786133 17.01928711 C42.01324857 18.33774952 45.80441008 19.96960408 49.63818359 21.60302734 C53.57059108 23.23710401 57.5385159 24.75873638 61.51953125 26.26953125 C63.05276964 26.85472533 64.58597229 27.44001304 66.11914062 28.02539062 C68.45990199 28.91832877 70.80156147 29.80838933 73.14672852 30.68969727 C108.23509404 43.89713646 108.23509404 43.89713646 116.625 59.3125 C117.88262432 62.68521978 118.13200547 64.51385563 118 68 C117.47277344 67.61070312 116.94554687 67.22140625 116.40234375 66.8203125 C99.85389896 55.43833938 79.85621622 49.37952131 61.16271973 42.45611572 C46.00291462 36.83617498 30.94533236 31.19272004 16.97827148 22.95751953 C14.91624928 21.78216582 14.91624928 21.78216582 12 22 C11.55269531 21.0821875 11.10539063 20.164375 10.64453125 19.21875 C7.38838763 12.59091344 4.074884 6.17406667 0 0 Z " fill="#618EAB" transform="translate(529,530)"/>
<path d="M0 0 C12.68107825 5.84259103 22.85894813 13.47090816 33 23 C33.60328125 23.52722656 34.2065625 24.05445313 34.828125 24.59765625 C44.3766347 33.32071068 51.50181406 46.04043146 56 58 C56.24121582 58.62132812 56.48243164 59.24265625 56.73095703 59.8828125 C60.8658942 70.98916119 61.45494992 82.02035899 61.4375 93.75 C61.43783234 94.78912537 61.43783234 94.78912537 61.43817139 95.84924316 C61.34216688 124.05119282 54.76057072 151.25010757 36 173 C35.27554688 173.84691406 34.55109375 174.69382812 33.8046875 175.56640625 C12.83720084 199.49271942 -18.27795132 211.79830883 -49.61865234 214.78613281 C-62.0421371 215.57190701 -74.56132317 215.21241282 -87 215 C-87 214.67 -87 214.34 -87 214 C-80.4 214 -73.8 214 -67 214 C-67 213.34 -67 212.68 -67 212 C-64.6306754 210.8153377 -62.90833806 210.75217768 -60.265625 210.5703125 C-59.305354 210.49876953 -58.34508301 210.42722656 -57.35571289 210.35351562 C-56.33082764 210.27810547 -55.30594238 210.20269531 -54.25 210.125 C-45.25548874 209.40660857 -36.75279237 208.24305543 -28 206 C-27.23945312 205.8246875 -26.47890625 205.649375 -25.6953125 205.46875 C-23.78610281 205.02302011 -21.89220599 204.51314061 -20 204 C-19.36707031 203.83242188 -18.73414063 203.66484375 -18.08203125 203.4921875 C6.98810937 196.06051354 29.85341445 177.88198739 43.1171875 155.515625 C51.29569612 140.24455081 56.05338506 123.28320672 56.23828125 105.94140625 C56.25038887 104.82027687 56.25038887 104.82027687 56.26274109 103.67649841 C56.27648165 102.10084275 56.28724795 100.52515857 56.29516602 98.94946289 C56.30660566 97.37417562 56.32692814 95.79892461 56.35668945 94.22387695 C56.63217348 79.57705317 54.97639481 65.38472824 48.25 52.125 C47.90638428 51.42431396 47.56276855 50.72362793 47.20874023 50.00170898 C44.09864995 43.84314943 40.4048181 38.31587156 36 33 C35.28972656 32.13890625 34.57945312 31.2778125 33.84765625 30.390625 C24.45399438 19.49463759 12.08817211 10.12500665 -1 4 C-0.67 2.68 -0.34 1.36 0 0 Z " fill="#B6BABC" transform="translate(675,498)"/>
<path d="M0 0 C0.75757095 -0.00418945 1.51514191 -0.00837891 2.29566956 -0.01269531 C4.73492702 -0.02242546 7.17400768 -0.02249284 9.61328125 -0.01953125 C10.44525024 -0.01925934 11.27721924 -0.01898743 12.13439941 -0.01870728 C24.50555546 -0.00005894 36.67103983 0.34365706 48.92578125 2.16796875 C49.60769531 2.25916992 50.28960938 2.35037109 50.9921875 2.44433594 C83.03746238 6.77683278 112.93619587 20.56131906 140.92578125 36.16796875 C139.17791913 42.19860415 136.36076024 47.67218878 133.61328125 53.29296875 C129.01713274 62.77168936 124.52572418 72.29033752 120.11328125 81.85546875 C115.87069863 91.0414625 111.57253328 100.17861574 106.92578125 109.16796875 C105.27578125 108.50796875 103.62578125 107.84796875 101.92578125 107.16796875 C102.61897461 106.53314575 102.61897461 106.53314575 103.32617188 105.88549805 C105.93540587 103.08391668 107.01457958 99.48917916 108.42578125 95.98046875 C113.92965326 82.66306414 120.2647334 69.7365488 126.53710938 56.76879883 C127.35422085 55.06854817 128.17128033 53.36827253 128.98828125 51.66796875 C129.3702063 50.88536179 129.75213135 50.10275482 130.14562988 49.2964325 C131.91695023 45.60148809 133.3954468 42.28010052 133.92578125 38.16796875 C100.04492646 15.7024963 58.30451679 4.97894416 18.01538086 4.98266602 C15.3935486 4.98049383 12.77214803 4.96232727 10.15039062 4.94335938 C1.89009355 4.9152383 -6.26450467 5.11016516 -14.4765625 6.0546875 C-15.15828018 6.13241898 -15.83999786 6.21015045 -16.54237366 6.29023743 C-20.59098799 6.81359079 -24.2375431 7.79582793 -28.07421875 9.16796875 C-30.0249841 9.5805327 -31.98374474 9.95740002 -33.94921875 10.29296875 C-34.91601562 10.46054687 -35.8828125 10.628125 -36.87890625 10.80078125 C-37.96558594 10.98253906 -37.96558594 10.98253906 -39.07421875 11.16796875 C-38.21484375 8.3125 -38.21484375 8.3125 -36.07421875 5.16796875 C-32.75705296 3.8212364 -29.35480573 3.36362281 -25.82421875 2.85546875 C-24.89480469 2.70013672 -23.96539063 2.54480469 -23.0078125 2.38476562 C-20.36655512 1.94953722 -17.72368392 1.54981482 -15.07421875 1.16796875 C-13.97907959 0.99072266 -12.88394043 0.81347656 -11.75561523 0.63085938 C-7.82155434 0.13619929 -3.95741702 0.00673828 0 0 Z " fill="#DEE3E5" transform="translate(592.07421875,322.83203125)"/>
<path d="M0 0 C0.66 0 1.32 0 2 0 C2.51046875 1.17755859 2.51046875 1.17755859 3.03125 2.37890625 C8.05320028 13.26425062 13.78827324 18.82155554 25 23 C25 23.66 25 24.32 25 25 C24.21496094 25.3403125 23.42992187 25.680625 22.62109375 26.03125 C11.73574938 31.05320028 6.17844446 36.78827324 2 48 C1.34 48 0.68 48 0 48 C-0.3403125 47.21496094 -0.680625 46.42992187 -1.03125 45.62109375 C-6.05320028 34.73574938 -11.78827324 29.17844446 -23 25 C-23 24.34 -23 23.68 -23 23 C-22.21496094 22.6596875 -21.42992187 22.319375 -20.62109375 21.96875 C-9.73574938 16.94679972 -4.17844446 11.21172676 0 0 Z " fill="#BADCEF" transform="translate(967,944)"/>
<path d="M0 0 C6.121542 1.93311852 12.05314209 4.18867978 18.00292969 6.59838867 C22.5817673 8.44718745 27.18423637 10.2164631 31.8125 11.9375 C33.15242064 12.43859653 34.49226324 12.93990177 35.83203125 13.44140625 C37.95391377 14.2356642 40.07632667 15.02829862 42.20068359 15.81591797 C80.8305391 30.1857209 80.8305391 30.1857209 91 47 C94.43205258 55.06590135 94.45748932 65.74913444 92.125 74.15234375 C87.68096288 83.63977826 80.54870538 89.12928783 71 93 C62.26698525 96.08677988 54.10453763 97.19408606 44.875 97.1875 C43.9466333 97.18814453 43.0182666 97.18878906 42.06176758 97.18945312 C35.18661028 97.13670102 28.71515995 96.55713854 22 95 C22.66 93.68 23.32 92.36 24 91 C24.60295898 91.06928711 25.20591797 91.13857422 25.82714844 91.20996094 C43.00314915 93.07130155 63.25918498 94.61464672 78 84 C83.27470439 79.42858953 88.51480389 73.21443596 89.3359375 66.08203125 C89.4633543 55.41724497 87.22488898 48.61954751 79.8828125 40.83203125 C67.27101712 28.56038803 48.7726065 23.18669229 32.5625 17.25 C29.93101499 16.27860583 27.30032227 15.30509168 24.66976929 14.33117676 C22.9989025 13.71267168 21.32770779 13.09505162 19.65615845 12.47839355 C14.66944548 10.63492572 9.71157262 8.73683974 4.79272461 6.71777344 C3.21722564 6.08697309 1.6099986 5.5366662 0 5 C-0.33 4.01 -0.66 3.02 -1 2 C-0.67 1.34 -0.34 0.68 0 0 Z " fill="#D8DCDD" transform="translate(558,540)"/>
<path d="M0 0 C3.70034556 3.35573122 5.11609518 7.33299498 7 11.875 C7.35521729 12.72690918 7.71043457 13.57881836 8.07641602 14.45654297 C13.49196672 27.78500342 15.19168989 40.78204827 15.0625 55.0625 C15.05798828 56.02349609 15.05347656 56.98449219 15.04882812 57.97460938 C15.03717706 60.31647422 15.02082025 62.65820181 15 65 C10.65636456 64.48898407 7.01668054 63.70656894 3 62 C3.07001221 61.33572998 3.14002441 60.67145996 3.2121582 59.98706055 C3.87966465 53.24766518 4.19329075 46.58362833 4.1875 39.8125 C4.18669434 38.81436279 4.18588867 37.81622559 4.18505859 36.7878418 C4.11611956 28.37795522 3.35126874 20.29934651 2 12 C1.80921875 10.79730469 1.6184375 9.59460938 1.421875 8.35546875 C0.96731228 5.56640179 0.49529293 2.78207093 0 0 Z " fill="#5C8CAB" transform="translate(545,559)"/>
<path d="M0 0 C8.04471827 2.97210808 15.55162849 6.7431581 23.125 10.75 C24.84589844 11.65298828 24.84589844 11.65298828 26.6015625 12.57421875 C29.40335205 14.04515827 32.20273216 15.52048508 35 17 C33.7797263 20.84153766 32.40638158 24.45021529 30.63671875 28.0703125 C30.16838623 29.03541748 29.70005371 30.00052246 29.2175293 30.99487305 C28.71261963 32.02781494 28.20770996 33.06075684 27.6875 34.125 C23.09135149 43.60372061 18.59994293 53.12236877 14.1875 62.6875 C9.94491738 71.87349375 5.64675203 81.01064699 1 90 C-0.65 89.34 -2.3 88.68 -4 88 C-3.30680664 87.365177 -3.30680664 87.365177 -2.59960938 86.7175293 C0.00962462 83.91594793 1.08879833 80.32121041 2.5 76.8125 C8.00387201 63.49509539 14.33895215 50.56858005 20.61132812 37.60083008 C21.4284396 35.90057942 22.24549908 34.20030378 23.0625 32.5 C23.44442505 31.71739304 23.8263501 30.93478607 24.21984863 30.12846375 C25.99116898 26.43351934 27.46966555 23.11213177 28 19 C23.29255227 16.05061628 18.54291286 13.24850373 13.5859375 10.73828125 C12.43726196 10.15228149 12.43726196 10.15228149 11.26538086 9.55444336 C9.7251658 8.7740785 8.17910369 8.00513854 6.62719727 7.24829102 C5.91362061 6.88533936 5.20004395 6.5223877 4.46484375 6.1484375 C3.821521 5.83052246 3.17819824 5.51260742 2.51538086 5.18505859 C0.55285674 3.65032489 0.36650248 2.41241342 0 0 Z " fill="#C7CBCC" transform="translate(698,342)"/>
<path d="M0 0 C4.70091666 2.25323742 9.12789229 4.9879506 13.61328125 7.63671875 C24.90422627 13.90061472 36.75581169 18.55324453 48.88955688 22.88357544 C61.31556478 27.32701382 73.65910817 31.91568675 85.8125 37.0625 C87.33774292 37.70493652 87.33774292 37.70493652 88.89379883 38.36035156 C94.80677116 40.9044507 100.44154422 43.75347593 106 47 C105.67 47.99 105.34 48.98 105 50 C100.23968967 48.50453704 95.73809298 46.64942487 91.1875 44.625 C90.52685547 44.33367187 89.86621094 44.04234375 89.18554688 43.7421875 C86.38923892 42.50780567 83.59517395 41.26928486 80.81030273 40.00927734 C75.49892615 37.61611867 70.13555922 35.43674706 64.6875 33.375 C63.80231689 33.03726563 62.91713379 32.69953125 62.00512695 32.3515625 C56.68484781 30.33816352 51.34165681 28.40758156 45.96875 26.5390625 C7.99266213 13.32477248 7.99266213 13.32477248 0 4 C0 2.68 0 1.36 0 0 Z " fill="#EBECEC" transform="translate(569,451)"/>
<path d="M0 0 C0.721875 0.556875 1.44375 1.11375 2.1875 1.6875 C7.27906124 5.12707769 13.26086578 6.92233123 19 9 C19 13 19 13 17.12890625 15.02734375 C10.47313506 19.98118258 10.47313506 19.98118258 6.859375 20.02734375 C4.40856187 19.24626399 2.28458549 18.18946707 0 17 C-1.29664264 16.39879208 -2.59639945 15.80427569 -3.8984375 15.21484375 C-7.62146523 13.52156401 -11.31409017 11.77253898 -15 10 C-11.86350023 7.57294661 -8.60330681 5.42827692 -5.25 3.3125 C-4.26515625 2.68988281 -3.2803125 2.06726563 -2.265625 1.42578125 C-1.51796875 0.95527344 -0.7703125 0.48476563 0 0 Z " fill="#537C96" transform="translate(504,689)"/>
<path d="M0 0 C12.68107825 5.84259103 22.85894813 13.47090816 33 23 C33.60328125 23.52722656 34.2065625 24.05445313 34.828125 24.59765625 C41.70731529 30.88215018 48.45175998 40.33298748 52 49 C52.125 52.25 52.125 52.25 52 55 C51.01 55.495 51.01 55.495 50 56 C49.53851562 55.06800781 49.07703125 54.13601563 48.6015625 53.17578125 C40.78144726 37.75136234 30.97317855 24.77836237 16.625 14.875 C15.92117188 14.37613281 15.21734375 13.87726563 14.4921875 13.36328125 C9.51050557 9.8815583 4.36257178 6.85657957 -1 4 C-0.67 2.68 -0.34 1.36 0 0 Z " fill="#C6C8C8" transform="translate(675,498)"/>
<path d="M0 0 C8.04471827 2.97210808 15.55162849 6.7431581 23.125 10.75 C24.84589844 11.65298828 24.84589844 11.65298828 26.6015625 12.57421875 C29.40335205 14.04515827 32.20273216 15.52048508 35 17 C33.90800985 20.37638335 32.79300925 23.65920269 31.2734375 26.8671875 C30.9640625 27.52460938 30.6546875 28.18203125 30.3359375 28.859375 C30.01882813 29.52453125 29.70171875 30.1896875 29.375 30.875 C29.05015625 31.56335938 28.7253125 32.25171875 28.390625 32.9609375 C27.59676528 34.64205219 26.79880442 36.32122921 26 38 C25.67 37.34 25.34 36.68 25 36 C23.515 36.495 23.515 36.495 22 37 C22.7416269 32.17942512 24.6866335 28.61982004 27.0390625 24.40234375 C28.15011313 22.12509646 28.15011313 22.12509646 27.87182617 20.03173828 C26.60556446 17.08079179 24.85792591 16.50151727 22.01171875 15.08984375 C20.99529297 14.57486328 19.97886719 14.05988281 18.93164062 13.52929688 C17.32579102 12.74135742 17.32579102 12.74135742 15.6875 11.9375 C13.5856801 10.88722968 11.48535815 9.833955 9.38671875 8.77734375 C8.45045654 8.31577881 7.51419434 7.85421387 6.54956055 7.37866211 C4.13526842 6.07314572 2.03096973 4.84853123 0 3 C0 2.01 0 1.02 0 0 Z " fill="#BEC1C3" transform="translate(698,342)"/>
<path d="M0 0 C0.90226318 0.10610596 0.90226318 0.10610596 1.82275391 0.21435547 C8.0283373 0.89614287 14.13471917 1.157372 20.375 1.125 C21.74047974 1.12209961 21.74047974 1.12209961 23.13354492 1.11914062 C29.7995369 1.07645931 36.37391313 0.76824196 43 0 C42.67 1.32 42.34 2.64 42 4 C28.06209674 7.65584348 11.99795115 7.24590172 -2 4 C-1.34 2.68 -0.68 1.36 0 0 Z " fill="#E8E9E8" transform="translate(582,631)"/>
<path d="M0 0 C12.497766 1.44335613 24.95302871 5.6240503 36.6875 10.0625 C37.86699219 10.50722656 39.04648437 10.95195312 40.26171875 11.41015625 C43 13 43 13 44.39453125 15.68359375 C44.69423828 16.83021484 44.69423828 16.83021484 45 18 C39.95474351 16.37525639 35.03642053 14.61849591 30.125 12.625 C23.69268589 10.1053598 17.15141558 8.3496571 10.44775391 6.69970703 C9.66964355 6.50618652 8.8915332 6.31266602 8.08984375 6.11328125 C7.39753662 5.94610596 6.70522949 5.77893066 5.99194336 5.60668945 C3.84790511 4.95367621 1.97456165 4.05319167 0 3 C0 2.01 0 1.02 0 0 Z " fill="#CDD0D2" transform="translate(654,328)"/>
<path d="M0 0 C-2.4724849 4.20771976 -5.30781139 5.14623651 -9.8125 6.75 C-16.13937647 9.07463312 -21.78188206 11.95568763 -27.4309082 15.63574219 C-29.07421875 16.65625 -29.07421875 16.65625 -32 18 C-34.39453125 17.21875 -34.39453125 17.21875 -36 16 C-32.55631902 12.06436459 -28.62994166 9.88790656 -24.0625 7.5 C-23.31411865 7.10635254 -22.5657373 6.71270508 -21.79467773 6.30712891 C-4.79012517 -2.39506259 -4.79012517 -2.39506259 0 0 Z " fill="#A9ABAC" transform="translate(556,330)"/>
<path d="M0 0 C0.66 0.33 1.32 0.66 2 1 C1.67 1.9075 1.34 2.815 1 3.75 C-2.14617886 15.0352068 0.94057056 23.97230202 6 34 C5.01 34.66 4.02 35.32 3 36 C-3.83526243 27.31736935 -6.20114006 19.11054554 -5 8 C-3.67075969 4.49563918 -2.6165916 2.6165916 0 0 Z " fill="#BEC2C4" transform="translate(564,417)"/>
<path d="M0 0 C2.16066852 2.16066852 2.58196722 3.31339859 3.47265625 6.17578125 C3.73240234 7.00400391 3.99214844 7.83222656 4.25976562 8.68554688 C4.65711914 9.98588867 4.65711914 9.98588867 5.0625 11.3125 C5.33126953 12.16779297 5.60003906 13.02308594 5.87695312 13.90429688 C10.73221378 29.53557244 10.73221378 29.53557244 8 35 C7.77532169 36.53668865 7.59203195 38.07968054 7.4375 39.625 C7.35371094 40.44226563 7.26992188 41.25953125 7.18359375 42.1015625 C7.12300781 42.72804688 7.06242188 43.35453125 7 44 C6.67 44 6.34 44 6 44 C5.85304688 42.45505859 5.85304688 42.45505859 5.703125 40.87890625 C4.75388405 31.61365617 3.18550591 22.73519993 0.90234375 13.70703125 C-1.42916065 4.12868633 -1.42916065 4.12868633 0 0 Z " fill="#A5A9AA" transform="translate(727,549)"/>
<path d="M0 0 C0.77214844 0.00902344 1.54429687 0.01804687 2.33984375 0.02734375 C2.90832031 0.03894531 3.47679687 0.05054688 4.0625 0.0625 C4.0625 0.3925 4.0625 0.7225 4.0625 1.0625 C1.4225 1.3925 -1.2175 1.7225 -3.9375 2.0625 C-3.9375 2.7225 -3.9375 3.3825 -3.9375 4.0625 C-14.59446982 6.44279825 -25.25572282 8.79562767 -35.9375 11.0625 C-35.078125 8.20703125 -35.078125 8.20703125 -32.9375 5.0625 C-29.62033421 3.71576765 -26.21808698 3.25815406 -22.6875 2.75 C-21.75808594 2.59466797 -20.82867188 2.43933594 -19.87109375 2.27929688 C-17.23012687 1.84411633 -14.58613773 1.44780857 -11.9375 1.0625 C-10.66261719 0.86398437 -9.38773438 0.66546875 -8.07421875 0.4609375 C-5.33503129 0.11299588 -2.75603562 -0.04240055 0 0 Z " fill="#C4C9CB" transform="translate(588.9375,322.9375)"/>
<path d="M0 0 C11.88 0.66 23.76 1.32 36 2 C35.34 2.33 34.68 2.66 34 3 C34 3.66 34 4.32 34 5 C29.6250563 5.05826088 25.25021302 5.09368457 20.875 5.125 C19.01875 5.15013672 19.01875 5.15013672 17.125 5.17578125 C15.92617188 5.18222656 14.72734375 5.18867187 13.4921875 5.1953125 C12.39245605 5.20578613 11.29272461 5.21625977 10.15966797 5.22705078 C6.76012687 4.98276294 4.11676223 4.37879924 1 3 C0.67 2.01 0.34 1.02 0 0 Z " fill="#EBECEC" transform="translate(574,707)"/>
<path d="M0 0 C3.69027671 1.77206357 7.21000545 3.82508076 10.75 5.875 C15.75788812 8.75900118 20.78746519 11.49798329 26 14 C26 14.99 26 15.98 26 17 C15.40249407 16.51829519 6.32247213 10.27939876 -1 3 C-0.67 2.01 -0.34 1.02 0 0 Z " fill="#D4D8D8" transform="translate(569,451)"/>
<path d="M0 0 C7.03508825 1.90231184 13.50523359 4.39496311 20.0625 7.5625 C20.91521484 7.96146484 21.76792969 8.36042969 22.64648438 8.77148438 C28.87125523 11.74251047 28.87125523 11.74251047 30 14 C29.67 14.66 29.34 15.32 29 16 C24.22517809 14.4976417 19.69513964 12.64661598 15.125 10.625 C14.06925781 10.16081665 14.06925781 10.16081665 12.9921875 9.68725586 C8.25521681 7.59125598 3.59527838 5.39337416 -1 3 C-0.67 2.01 -0.34 1.02 0 0 Z " fill="#DCDDDD" transform="translate(645,485)"/>
<path d="M0 0 C2.89695169 0.28277618 5.7922295 0.57587413 8.6875 0.875 C9.50412109 0.95363281 10.32074219 1.03226562 11.16210938 1.11328125 C15.42628372 1.56214171 19.08937454 2.10442187 23 4 C23 4.99 23 5.98 23 7 C23.66 7.33 24.32 7.66 25 8 C24.29617188 7.87882812 23.59234375 7.75765625 22.8671875 7.6328125 C14.92932836 6.28565625 6.97442074 5.10886916 -1 4 C-0.34 3.67 0.32 3.34 1 3 C0.67 2.01 0.34 1.02 0 0 Z " fill="#D7DCDE" transform="translate(631,324)"/>
<path d="M0 0 C1.32 0 2.64 0 4 0 C2.50640515 4.84286815 0.54966433 9.31350896 -1.625 13.875 C-1.94984375 14.56335938 -2.2746875 15.25171875 -2.609375 15.9609375 C-3.40323472 17.64205219 -4.20119558 19.32122921 -5 21 C-5.33 20.34 -5.66 19.68 -6 19 C-6.99 19.33 -7.98 19.66 -9 20 C-8.39700498 15.53616188 -6.67914389 12.22870735 -4.5 8.3125 C-3.8709375 7.17425781 -3.241875 6.03601563 -2.59375 4.86328125 C-2.0678125 3.91839844 -1.541875 2.97351563 -1 2 C-0.67 1.34 -0.34 0.68 0 0 Z " fill="#B7BCBE" transform="translate(729,359)"/>
<path d="M0 0 C2.96013476 0.44850527 5.91772909 0.90829867 8.875 1.375 C9.71675781 1.50132812 10.55851563 1.62765625 11.42578125 1.7578125 C12.63427734 1.95117188 12.63427734 1.95117188 13.8671875 2.1484375 C14.61081543 2.26364746 15.35444336 2.37885742 16.12060547 2.49755859 C18 3 18 3 20 5 C20 5.66 20 6.32 20 7 C12.94110263 6.29411026 5.98795036 5.21786614 -1 4 C-0.67 2.68 -0.34 1.36 0 0 Z " fill="#C1C7C9" transform="translate(556,704)"/>
<path d="M0 0 C0 0.33 0 0.66 0 1 C-2.64 1.33 -5.28 1.66 -8 2 C-8 2.66 -8 3.32 -8 4 C-13.22512279 5.46670113 -17.5814234 6.22577402 -23 6 C-23.33 5.01 -23.66 4.02 -24 3 C-15.91775784 0.87309417 -8.3623624 -0.17066046 0 0 Z " fill="#C8D1D7" transform="translate(593,323)"/>
<path d="M0 0 C2.46091594 2.46091594 3.02845243 4.518796 4.125 7.8125 C4.47820313 8.85019531 4.83140625 9.88789062 5.1953125 10.95703125 C5.96229466 13.85741525 6.4043577 16.02952613 6 19 C5.01 19.66 4.02 20.32 3 21 C2.29489572 18.8181108 1.61167592 16.62914307 0.9375 14.4375 C0.55464844 13.21933594 0.17179688 12.00117187 -0.22265625 10.74609375 C-1.04533421 6.78153013 -0.8063122 3.94028039 0 0 Z " fill="#B5B8B9" transform="translate(727,549)"/>
<path d="M0 0 C2.97 0.495 2.97 0.495 6 1 C5.01 2.485 5.01 2.485 4 4 C3.56261304 5.71444889 3.19151312 7.44667784 2.875 9.1875 C2.70742188 10.08855469 2.53984375 10.98960937 2.3671875 11.91796875 C2.24601562 12.60503906 2.12484375 13.29210937 2 14 C0.68 14 -0.64 14 -2 14 C-2.21192221 8.80790596 -1.5912689 4.873261 0 0 Z " fill="#ACAFB1" transform="translate(475,414)"/>
<path d="M0 0 C-2.21214442 4.00951177 -4.94902231 5.01972764 -9.0625 6.484375 C-11 7 -11 7 -14 7 C-14.33 5.68 -14.66 4.36 -15 3 C-12.87790224 2.30359327 -10.75221473 1.61811643 -8.625 0.9375 C-6.84996094 0.36322266 -6.84996094 0.36322266 -5.0390625 -0.22265625 C-2 -1 -2 -1 0 0 Z " fill="#AFB5B8" transform="translate(556,330)"/>
<path d="M0 0 C4.95 0 9.9 0 15 0 C15 0.99 15 1.98 15 3 C7.74 3 0.48 3 -7 3 C-7 2.67 -7 2.34 -7 2 C-3.535 1.505 -3.535 1.505 0 1 C0 0.67 0 0.34 0 0 Z " fill="#EEEDED" transform="translate(603,324)"/>
<path d="M0 0 C0.33 0 0.66 0 1 0 C1.08720919 3.58317958 1.14046112 7.16608567 1.1875 10.75 C1.22520508 12.27367187 1.22520508 12.27367187 1.26367188 13.828125 C1.27333984 14.8078125 1.28300781 15.7875 1.29296875 16.796875 C1.3086792 17.69760742 1.32438965 18.59833984 1.34057617 19.52636719 C0.93761772 22.45308763 -0.0655403 23.81341349 -2 26 C-2.02685095 23.52076199 -2.04676547 21.0418116 -2.0625 18.5625 C-2.07506836 17.50192383 -2.07506836 17.50192383 -2.08789062 16.41992188 C-2.09653588 14.61306441 -2.05220011 12.80612397 -2 11 C-1.67 10.67 -1.34 10.34 -1 10 C-0.76712992 8.31816052 -0.58735834 6.6287584 -0.4375 4.9375 C-0.35371094 4.01839844 -0.26992188 3.09929687 -0.18359375 2.15234375 C-0.12300781 1.44207031 -0.06242187 0.73179687 0 0 Z " fill="#C1C4C6" transform="translate(476,435)"/>
<path d="M0 0 C10.55808656 0.96355353 10.55808656 0.96355353 15 2 C15 2.99 15 3.98 15 5 C9.88081854 5.1765235 5.75016635 5.2012966 1 3 C0.67 2.01 0.34 1.02 0 0 Z " fill="#D7DBDC" transform="translate(574,707)"/>
<path d="M0 0 C1.62542193 0.64477069 3.25032424 1.29085143 4.875 1.9375 C5.77992188 2.29714844 6.68484375 2.65679687 7.6171875 3.02734375 C10 4 10 4 12 5 C12 6.32 12 7.64 12 9 C7.39874735 7.68535639 3.77578157 5.96668552 0 3 C0 2.01 0 1.02 0 0 Z " fill="#C4C7C9" transform="translate(698,342)"/>
<path d="M0 0 C0.66 0.66 1.32 1.32 2 2 C0.25113898 3.91771657 -1.49904501 5.83419683 -3.25 7.75 C-3.74113281 8.28882813 -4.23226562 8.82765625 -4.73828125 9.3828125 C-7.42873164 12.3243716 -10.1531511 15.2073768 -13 18 C-13.66 17.67 -14.32 17.34 -15 17 C-14.50371094 16.52691406 -14.00742187 16.05382812 -13.49609375 15.56640625 C-8.50124679 10.70424973 -4.14738183 5.59896548 0 0 Z " fill="#6D93A9" transform="translate(715,665)"/>
<path d="M0 0 C0.33 0 0.66 0 1 0 C1.33 2.97 1.66 5.94 2 9 C2.66 9 3.32 9 4 9 C4 11.31 4 13.62 4 16 C3.01 16 2.02 16 1 16 C-0.06723961 12.53777385 -0.10173486 9.35960734 -0.0625 5.75 C-0.04896484 4.13351562 -0.04896484 4.13351562 -0.03515625 2.484375 C-0.02355469 1.66453125 -0.01195312 0.8446875 0 0 Z " fill="#CDCFCE" transform="translate(559,425)"/>
<path d="M0 0 C-0.33 1.32 -0.66 2.64 -1 4 C-8.50769231 4.36923077 -8.50769231 4.36923077 -11 2.5 C-11.33 2.005 -11.66 1.51 -12 1 C-7.93631321 0.22596442 -4.13574827 -0.0984702 0 0 Z " fill="#DBE1E3" transform="translate(625,631)"/>
<path d="M0 0 C3.37462715 0.54723683 5.08235 1.0549 8 3 C7.01 3 6.02 3 5 3 C5 3.66 5 4.32 5 5 C2.69 4.67 0.38 4.34 -2 4 C-2 3.34 -2 2.68 -2 2 C-1.34 2 -0.68 2 0 2 C0 1.34 0 0.68 0 0 Z " fill="#C6C8C8" transform="translate(528,696)"/>
<path d="M0 0 C0.66 0.33 1.32 0.66 2 1 C1.34 2.98 0.68 4.96 0 7 C-0.99 7 -1.98 7 -3 7 C-3.33 7.66 -3.66 8.32 -4 9 C-3.38461538 3.46153846 -3.38461538 3.46153846 -1.4375 1.125 C-0.963125 0.75375 -0.48875 0.3825 0 0 Z " fill="#C4C6C6" transform="translate(564,417)"/>
<path d="M0 0 C2.97 0.495 2.97 0.495 6 1 C5.67 1.99 5.34 2.98 5 4 C2.69 4 0.38 4 -2 4 C-1.34 2.68 -0.68 1.36 0 0 Z " fill="#DBDEDF" transform="translate(582,631)"/>
<path d="M0 0 C1.98 0.66 3.96 1.32 6 2 C6 2.99 6 3.98 6 5 C3.69 4.67 1.38 4.34 -1 4 C-0.67 2.68 -0.34 1.36 0 0 Z " fill="#DFE1E2" transform="translate(589,463)"/>
<path d="M0 0 C2.97 0 5.94 0 9 0 C9.33 0.66 9.66 1.32 10 2 C4.06 2.495 4.06 2.495 -2 3 C-1.34 2.67 -0.68 2.34 0 2 C0 1.34 0 0.68 0 0 Z " fill="#E5E6E7" transform="translate(594,324)"/>
<path d="M0 0 C3.3 0.33 6.6 0.66 10 1 C10 1.99 10 2.98 10 4 C8.35 4 6.7 4 5 4 C4.67 3.34 4.34 2.68 4 2 C2.68 1.34 1.36 0.68 0 0 Z " fill="#E4E5E6" transform="translate(584,708)"/>
</svg>
