<?xml version="1.0" encoding="UTF-8"?>
<svg version="1.1" xmlns="http://www.w3.org/2000/svg" width="1024" height="920">
<path d="M0 0 C337.92 0 675.84 0 1024 0 C1024 337.92 1024 675.84 1024 1024 C686.08 1024 348.16 1024 0 1024 C0 686.08 0 348.16 0 0 Z " fill="#72BBE4" transform="translate(0,0)"/>
<path d="M0 0 C1.84464844 -0.00580078 1.84464844 -0.00580078 3.7265625 -0.01171875 C16.57796723 0.00178062 28.91736039 0.83095523 41.5 3.5 C42.52867187 3.70882813 43.55734375 3.91765625 44.6171875 4.1328125 C47.70969175 4.76996162 50.79308332 5.4385463 53.875 6.125 C54.8753125 6.34623535 55.875625 6.5674707 56.90625 6.79541016 C64.11389173 8.48382363 70.81649664 10.85867944 77.625 13.75 C78.65979492 14.18513916 79.69458984 14.62027832 80.76074219 15.06860352 C90.89274016 19.41504506 101.17457281 24.25510823 109.875 31.125 C107.15663744 40.16561489 103.21969911 48.64728066 99.375 57.25 C98.35526325 59.54235274 97.33668395 61.83521716 96.3182373 64.12814331 C95.68816368 65.54553273 95.05712587 66.9624941 94.42492676 68.37893677 C92.53699008 72.61199772 90.69155628 76.86079312 88.875 81.125 C86.28358659 79.91876665 83.86090287 78.52466482 81.43359375 77.0234375 C51.55008725 58.63415159 14.9717864 47.65696273 -20.2421875 54.37109375 C-30.03888589 56.93310295 -39.98871618 60.1385075 -45.94140625 68.75390625 C-50.34044944 76.58236594 -51.8767888 83.87695326 -49.421875 92.6328125 C-48.49464675 94.95088312 -47.42501301 96.99545488 -46.125 99.125 C-45.77050781 99.72828125 -45.41601562 100.3315625 -45.05078125 100.953125 C-33.9166726 116.54790179 -5.18234298 121.52967995 12.09765625 126.53125 C20.64418001 129.00974128 29.08922201 131.75314278 37.51391602 134.61694336 C39.93614623 135.43704165 42.36339914 136.24093128 44.79101562 137.04492188 C73.06222682 146.55599961 97.96939919 160.78570792 111.875 188.125 C117.15191399 198.79936662 118.41727189 210.09143686 118.3125 221.875 C118.30347656 223.09928711 118.29445313 224.32357422 118.28515625 225.58496094 C117.85670667 248.10831738 110.37476989 266.30918198 94.5390625 282.515625 C84.47205788 292.09394007 72.69989025 298.06772333 59.875 303.125 C59.02035156 303.49367188 58.16570312 303.86234375 57.28515625 304.2421875 C16.55406487 320.84348541 -37.81913576 313.78327219 -77.20239258 297.29003906 C-90.47727067 291.48418304 -104.20607599 284.76685687 -115.125 275.125 C-114.53997673 269.22352435 -112.234927 264.27868884 -109.87109375 258.9140625 C-109.45078384 257.94592621 -109.03047394 256.97778992 -108.59742737 255.98031616 C-107.25874186 252.90075975 -105.91076914 249.82537089 -104.5625 246.75 C-103.6510763 244.6578205 -102.74026202 242.56537541 -101.83007812 240.47265625 C-99.60210418 235.35367234 -97.36649929 230.23807475 -95.125 225.125 C-91.77006479 226.37860912 -88.85697513 227.80238454 -85.8671875 229.76953125 C-85.08126221 230.27967773 -84.29533691 230.78982422 -83.4855957 231.31542969 C-82.25522583 232.11835449 -82.25522583 232.11835449 -81 232.9375 C-74.23765745 237.29077825 -67.64883494 241.21691099 -60.125 244.125 C-55.01310912 224.22513907 -57.54601061 201.32241159 -67.125 183.125 C-69.2397146 179.59517563 -71.57009582 176.3484288 -74.125 173.125 C-74.77082031 172.30257812 -75.41664063 171.48015625 -76.08203125 170.6328125 C-90.97326581 152.89594314 -112.93276982 144.73183602 -134.125 137.125 C-135.16043945 136.75197754 -136.19587891 136.37895508 -137.26269531 135.99462891 C-148.37559415 132.01331501 -159.49086553 128.19516311 -170.875 125.0625 C-214.25131959 113.07029702 -214.25131959 113.07029702 -225.125 94.125 C-227.81690884 88.74118232 -226.88275338 79.81608679 -225.2890625 74.15625 C-221.16834415 65.19576178 -214.22015666 59.94964508 -205.23754883 56.26855469 C-195.31913322 52.62451526 -185.56884434 51.59763566 -175.0625 51.6875 C-173.16177734 51.69994751 -173.16177734 51.69994751 -171.22265625 51.71264648 C-140.39246941 52.26178965 -112.45226871 64.24015419 -87.125 81.125 C-86.95497971 80.58366928 -86.78495941 80.04233856 -86.60978699 79.48460388 C-84.76219853 73.75633842 -82.56028229 68.28073479 -80.11328125 62.78515625 C-79.74019333 61.93698837 -79.36710541 61.0888205 -78.98271179 60.21495056 C-77.80475906 57.53744566 -76.6217374 54.8622306 -75.4375 52.1875 C-73.86689271 48.63855287 -72.30118832 45.08749992 -70.73828125 41.53515625 C-70.19461662 40.31337425 -70.19461662 40.31337425 -69.63996887 39.06690979 C-67.79663941 35.24227379 -67.79663941 35.24227379 -67.125 31.125 C-68.90898614 29.84493203 -70.75353906 28.64839649 -72.625 27.5 C-73.6459375 26.86835938 -74.666875 26.23671875 -75.71875 25.5859375 C-76.90984375 24.86277344 -76.90984375 24.86277344 -78.125 24.125 C-64.07708657 9.14720104 -41.6057254 4.20988576 -22.125 1.125 C-20.90425781 0.9290625 -19.68351563 0.733125 -18.42578125 0.53125 C-12.31397893 -0.18939195 -6.14391612 -0.0189627 0 0 Z " fill="#FDFEFE" transform="translate(599.125,355.875)"/>
<path d="M0 0 C0.90524414 0.03335449 1.81048828 0.06670898 2.74316406 0.10107422 C33.62642123 1.51589902 68.4110851 11.53631798 93 31 C90.97500293 37.47389025 88.52498702 43.65280535 85.76953125 49.84765625 C85.1766053 51.19361122 85.1766053 51.19361122 84.57170105 52.5667572 C83.32240657 55.40035467 82.06755603 58.23145045 80.8125 61.0625 C79.95861416 62.99658139 79.105095 64.9308247 78.25195312 66.86523438 C76.17220111 71.57870466 74.08746645 76.28994145 72 81 C69.27185329 79.65057815 66.65121139 78.22703295 64.05078125 76.64453125 C34.28910991 58.77801992 -2.17307651 46.84440675 -37.17919922 54.12963867 C-49.35155156 57.22847216 -58.23461039 62.37537662 -64.875 73 C-67.34882371 79.58692818 -67.3909125 88.3407535 -64.91015625 94.8671875 C-63.70316243 97.00129251 -62.386664 98.98138093 -61 101 C-60.67 101.99 -60.34 102.98 -60 104 C-58.18384073 105.05716161 -58.18384073 105.05716161 -56 106 C-55.29488281 106.46535156 -54.58976562 106.93070312 -53.86328125 107.41015625 C-46.89931912 111.92126801 -39.6584403 114.82168967 -31.875 117.625 C-30.88153564 117.984729 -29.88807129 118.34445801 -28.86450195 118.71508789 C-22.78344131 120.8494999 -16.66322116 122.66958273 -10.4453125 124.34765625 C-1.33704637 126.81712751 7.56024943 129.78425213 16.45898438 132.91918945 C18.99535819 133.81086814 21.5364172 134.6881118 24.078125 135.56445312 C32.43018494 138.47223456 40.65355929 141.5773697 48.75 145.140625 C49.46430176 145.45292557 50.17860352 145.76522614 50.91455078 146.08699036 C71.26919544 155.26719799 88.76054066 170.96826574 97 192 C100.40273135 202.08719707 102.19746326 212.05770145 102.1875 222.6875 C102.18669434 223.57219971 102.18588867 224.45689941 102.18505859 225.3684082 C102.06579517 238.12141005 102.06579517 238.12141005 100 244 C99.34 244.33 98.68 244.66 98 245 C95.35606316 243.81373538 92.85511554 242.56571414 90.3125 241.1875 C89.56025146 240.7853125 88.80800293 240.383125 88.03295898 239.96875 C81.38539645 236.34647973 75.10741519 232.26293939 68.87890625 227.96875 C66.21229115 226.04958765 66.21229115 226.04958765 64 225 C63.45859375 226.75957031 63.45859375 226.75957031 62.90625 228.5546875 C60.55877555 235.59435561 57.48139133 242.33743708 54.5 249.125 C53.91239954 250.46989447 53.32515756 251.81494562 52.73828125 253.16015625 C51.65652896 255.63917825 50.57234015 258.11707368 49.48632812 260.59423828 C48.99583984 261.71813965 48.50535156 262.84204102 48 264 C47.71879303 264.62518021 47.43758606 265.25036041 47.14785767 265.89448547 C45.48346547 269.6338771 45.48346547 269.6338771 44.8984375 273.65234375 C46.54791465 277.1677188 49.39141156 278.66019386 52.625 280.5625 C53.22957031 280.93568359 53.83414063 281.30886719 54.45703125 281.69335938 C58.58339885 284.22284911 62.78981573 286.61350737 67 289 C65.5434146 293.36975619 62.19940011 294.37904688 58.3125 296.375 C57.54010986 296.77420654 56.76771973 297.17341309 55.97192383 297.5847168 C42.8103505 304.2502288 29.4577027 307.56947198 15 310 C13.95900146 310.18006592 13.95900146 310.18006592 12.89697266 310.36376953 C-10.03361749 314.17512103 -33.32050826 312.45832814 -56 308 C-57.23097412 307.75975098 -57.23097412 307.75975098 -58.48681641 307.51464844 C-63.37996037 306.52869301 -68.19499248 305.34964182 -73 304 C-73.67804688 303.81276367 -74.35609375 303.62552734 -75.0546875 303.43261719 C-92.57886819 298.45711793 -109.77033928 290.4803366 -125 280.5 C-125.61061279 280.10329102 -126.22122559 279.70658203 -126.8503418 279.29785156 C-130.7388915 276.60688539 -130.7388915 276.60688539 -131.78076172 274.18530273 C-132.07681356 271.23434497 -131.23962395 269.56903292 -130.0078125 266.87890625 C-129.5538208 265.87013428 -129.0998291 264.8613623 -128.63208008 263.82202148 C-128.13474365 262.74637939 -127.63740723 261.6707373 -127.125 260.5625 C-126.10969165 258.31554919 -125.0953864 256.06814487 -124.08203125 253.8203125 C-123.56721191 252.68625977 -123.05239258 251.55220703 -122.52197266 250.38378906 C-120.21886853 245.26331694 -118.01135214 240.10340742 -115.8125 234.9375 C-115.42658691 234.03394775 -115.04067383 233.13039551 -114.64306641 232.19946289 C-113.76081324 230.13349638 -112.87974996 228.06703334 -112 226 C-108.01746217 226 -107.43750974 226.0474578 -104.41796875 228.125 C-103.7412915 228.58036133 -103.06461426 229.03572266 -102.36743164 229.50488281 C-101.6480542 229.99827148 -100.92867676 230.49166016 -100.1875 231 C-68.71559377 251.89393283 -29.90645819 264.65972755 8.125 257.8125 C20.19796416 254.9149886 30.83832037 251.37184733 38.4375 241.046875 C42.44281545 233.75942605 42.46548716 223.28202324 40.26953125 215.3671875 C38.30564165 211.15083677 35.52027408 208.04023671 32 205 C31.51660156 204.55269531 31.03320312 204.10539063 30.53515625 203.64453125 C12.97802179 188.79461933 -16.07446867 182.87258655 -37.9375 176.9375 C-67.82628471 168.75006404 -100.97394182 156.08935059 -117.3125 128 C-127.74457022 109.33482493 -129.30452877 85.29063732 -123.90454102 64.71972656 C-117.33095898 42.60084542 -102.26843106 26.39741136 -82.6796875 15.08203125 C-56.76978254 1.4658051 -28.88814891 -1.13838525 0 0 Z " fill="#010101" transform="translate(440,356)"/>
<path d="M0 0 C1.90072266 0.01244751 1.90072266 0.01244751 3.83984375 0.02514648 C25.68453792 0.41424125 47.45457885 6.53634335 66.9375 16.4375 C66.793125 17.10652344 66.64875 17.77554687 66.5 18.46484375 C62.53070777 39.00041812 64.67584614 60.10786602 75.63671875 78.25 C77.31750943 80.72774986 79.08263971 83.08801029 80.9375 85.4375 C81.43507813 86.11039062 81.93265625 86.78328125 82.4453125 87.4765625 C98.83437387 108.14819268 129.02679215 117.31802654 153.2097168 124.51220703 C161.98385991 127.12448398 170.71607558 129.85789153 179.43261719 132.65563965 C181.0313539 133.16743037 182.63109405 133.6760996 184.23193359 134.18127441 C192.55757207 136.81063172 200.73211917 139.61560323 208.74609375 143.09375 C209.39666245 143.37500732 210.04723114 143.65626465 210.71751404 143.94604492 C220.2024487 148.18775871 227.41171334 154.67871513 232.8125 163.5 C235.42911388 170.44107753 235.12630357 179.48167734 232.375 186.3125 C226.07090062 198.06997255 216.52270689 202.94320666 204.0625 206.8125 C175.69220336 213.9086169 140.36285768 207.49622719 114.9375 193.4375 C115.081875 192.80328125 115.22625 192.1690625 115.375 191.515625 C119.53831411 170.58340684 117.50407482 147.40576775 106.37890625 128.8359375 C104.66278309 126.27562443 102.85189457 123.85282134 100.9375 121.4375 C100.29167969 120.61507812 99.64585937 119.79265625 98.98046875 118.9453125 C84.08923419 101.20844314 62.12973018 93.04433602 40.9375 85.4375 C39.90206055 85.06447754 38.86662109 84.69145508 37.79980469 84.30712891 C26.68690585 80.32581501 15.57163447 76.50766311 4.1875 73.375 C-39.18881959 61.38279702 -39.18881959 61.38279702 -50.0625 42.4375 C-52.75440884 37.05368232 -51.82025338 28.12858679 -50.2265625 22.46875 C-46.10584415 13.50826178 -39.15765666 8.26214508 -30.17504883 4.58105469 C-20.25663322 0.93701526 -10.50634434 -0.08986434 0 0 Z " fill="#73BAE3" transform="translate(424.0625,407.5625)"/>
<path d="M0 0 C0.66 0 1.32 0 2 0 C2.51046875 1.17755859 2.51046875 1.17755859 3.03125 2.37890625 C8.05320028 13.26425062 13.78827324 18.82155554 25 23 C25 23.66 25 24.32 25 25 C24.21496094 25.3403125 23.42992187 25.680625 22.62109375 26.03125 C11.73574938 31.05320028 6.17844446 36.78827324 2 48 C1.34 48 0.68 48 0 48 C-0.3403125 47.21496094 -0.680625 46.42992187 -1.03125 45.62109375 C-6.05320028 34.73574938 -11.78827324 29.17844446 -23 25 C-23 24.34 -23 23.68 -23 23 C-22.21496094 22.6596875 -21.42992187 22.319375 -20.62109375 21.96875 C-9.73574938 16.94679972 -4.17844446 11.21172676 0 0 Z " fill="#B7DCF1" transform="translate(967,944)"/>
</svg>
